<svg xmlns="http://www.w3.org/2000/svg" viewBox="0 0 1200 1200"><path fill="#8E8E8E" d="M596.645 991.681c-19.266 63.048-40.981 134.856-99.125 134.856-28.722 0-51.14-18.566-51.14-47.286 0-30.477 23.819-57.798 50.437-57.798 3.504 0 6.655.353 10.159 1.399 3.151 1.053 5.253 3.857 5.253 7.008 0 4.903-4.553 8.407-9.457 7.354-1.752-.347-3.501-.699-5.603-.699-19.266 0-36.077 21.718-36.077 42.03 0 21.718 16.462 33.276 36.077 33.276 49.038 0 69-70.749 85.465-124.344 8.054-26.968 16.112-52.888 25.918-72.154 7.005-13.31 18.213-23.117 31.877-26.621 4.903-1.052 8.054 1.752 8.754 6.302 0 5.256-3.151 7.708-5.952 8.407-8.057 1.405-17.514 10.512-21.368 18.919-9.456 18.214-17.16 43.43-25.218 69.351zM618.363 1150c-33.276 0-58.145-17.514-58.145-45.881 0-22.77 16.811-38.532 36.077-38.532 16.461 0 28.373 11.558 33.975 28.02 1.402 4.556-1.752 9.806-6.655 9.806-3.151 0-5.956-1.746-7.005-4.903-3.854-9.807-11.209-18.214-20.315-18.214-11.559 0-21.368 10.512-21.368 23.822 0 21.012 21.368 31.171 43.435 31.171 60.946 0 93.169-87.916 93.169-151.317 0-57.792-22.067-99.122-77.757-101.926-63.751 0-100.178 49.737-100.877 116.989 0 4.204-3.154 7.354-7.358 7.354-3.851 0-7.355-3.151-7.355-7.354.7-77.058 44.484-131.699 115.59-131.699 65.15 3.151 92.47 50.79 92.47 116.636.001 73.908-38.178 166.028-107.881 166.028zM768.981 68.567l-18.214 51.836c-15.412 44.135-35.378 101.58-37.829 108.235-22.767 61.995-32.923 90.721-33.626 108.935-.7 17.514 5.956 30.824 23.819 30.824 3.854 0 7.355 3.498 7.355 7.701-.35 3.857-3.501 7.355-7.704 7.355-26.971-.7-38.179-20.312-38.179-45.881 0-21.018 12.608-56.746 34.325-113.838l5.956-16.462h-90.371c-1.749 4.903-3.151 9.454-4.553 14.01-17.864 54.994-35.375 107.882-97.023 107.882-39.229 0-60.596-27.321-60.596-63.048 0-42.383 36.777-73.56 75.659-74.259 4.204 0 7.355 3.504 7.355 7.355 0 4.204-3.151 7.708-7.355 7.708-31.174 0-60.946 25.568-60.946 59.544 0 27.673 16.112 47.991 46.233 47.991 50.44 0 66.202-47.991 82.314-97.729 1.049-3.151 2.102-6.655 3.151-9.454h-14.71c-4.204 0-7.358-3.504-7.358-7.361 0-4.197 3.154-7.701 7.358-7.701h19.613l5.956-18.214c8.057-25.222 17.864-57.099 31.524-81.967l1.053-2.099c-15.063-3.504-28.723-7.707-41.683-11.558-22.417-7.008-43.432-13.663-66.902-13.663-23.117 0-45.884 22.77-45.884 46.24 0 25.915 16.811 37.473 40.631 37.473 10.156 0 21.365-2.798 31.874-7.355 1.053-.346 2.102-.699 3.504-.699 4.904 0 7.005 4.557 7.005 7.355 0 2.804-1.402 5.256-4.204 6.655-12.261 5.609-25.921 8.76-38.529 8.76-33.976 0-54.993-20.665-54.993-51.143C473.004 78.02 502.779 50 533.601 50c25.921 0 47.636 6.655 71.455 14.01 14.362 4.557 29.772 9.46 46.936 12.611 8.058-7.708 14.713-12.611 22.418-16.815 1.052-.699 2.451-1.052 3.504-1.052 5.253 0 7.355 4.556 7.355 7.361 0 2.798-1.402 5.25-4.204 6.655-11.209 6.302-21.718 15.409-26.971 26.268-12.611 23.469-22.417 54.64-30.475 79.509l-4.201 13.663h90.718c7.704-22.071 17.864-51.49 26.971-76.711 9.457-27.32 17.164-49.737 18.214-52.189 1.052-2.804 3.854-4.556 6.655-4.556 5.955 0 8.757 5.256 7.005 9.813z"/><path fill="#3D3D3D" d="M985.997 311.747c-2.86.371-3.86 2.314-3.659 4.959-1.067-.977-2.289-1.852-3.055-3.025-1.87-2.866-3.074-6.248-5.264-8.81-7.781-9.109-15.898-17.928-23.807-26.93-2.77-3.154-6.852-6.339-1.083-10.521.408-.296.531-1.891.194-2.176-4.371-3.673-.249-3.875 1.925-4.847 7.545-3.373 14.523-2.561 20.118 3.68 5.635 6.283 10.532 13.233 16.231 19.45 6.118 6.674 6.68 13.901 3.898 21.993-1.001 2.908-1.717 5.737-5.498 6.227z"/><path fill="#3D3D3D" d="M983.167 317.77c-.276-.232-.561-.455-.832-.69-.016-.135.011-.243.002-.375.078.072.164.139.241.212.202.28.389.572.589.853zM433.411 718.441l.09-.054.136-.038.013.116c-.077-.002-.161-.018-.239-.024zm-19.287 10.492c.282-.633.387-1.549.874-1.856 4.747-2.982 9.491-5.983 14.4-8.676 1.023-.561 2.627-.062 4.012.039-5.936 3.52-11.864 7.051-17.823 10.528-.358.21-.969-.013-1.463-.035z"/><path fill="#3D3D3D" d="M220.883 906.006c-1.641 6.933-.641 13.789 2.818 19.306 3.469 5.534 9.195 9.428 16.124 10.966 1.564.347 3.199.576 4.858.68 8.716.546 19.058 1.157 29.682 1.552 3.811.142 7.728.669 11.975 1.612 7.801 1.731 15.523 4.609 22.992 7.392.728.272 1.443.588 2.158.899 1.591.692 3.395 1.476 5.479 2.053.65.18 1.295.341 1.938.484 11.303 2.509 21.258-1.033 27.311-9.718 5.089-7.298 8.736-14.102 11.152-20.8 10.197-28.292 25.784-56.487 49.048-88.731 8.114-11.245 17.687-22.018 26.945-32.437l1.316-1.483 2.156-2.429c14.767-16.641 30.037-33.848 47.476-47.681 15.291-12.129 31.761-24.326 48.955-36.253 5.961-4.135 12.409-8.048 18.647-11.833 8.811-5.347 17.922-10.877 26.379-17.407 8.854-6.838 18.202-13.439 27.243-19.823 6.172-4.358 12.553-8.865 18.782-13.446 20.575-15.135 41.3-30.744 61.342-45.838l2.959-2.229 4.575-3.436c8.274-6.204 16.83-12.619 24.945-19.493a1122.539 1122.539 0 0 0 39.591-35.149c11.323-10.55 22.611-21.455 33.527-32.001 5.256-5.078 10.512-10.156 15.789-15.211 3.231-3.096 6.428-6.232 9.626-9.367 7.344-7.2 14.937-14.646 22.736-21.35 10.251-8.814 21.09-17.431 31.571-25.765 4.867-3.869 9.734-7.739 14.569-11.645 47.825 42.619 60.233 116.818 62.674 135.638 9.714-2.716 142.426-58.838 184.559-155.781-23.976-6.476-44.58-16.115-67.208-31.526-3.785-2.261-7.249-4.696-10.224-7.412-.811-.741-1.582-1.467-2.382-2.203a180.546 180.546 0 0 1-13.291-12.489c-14.679-14.144-27.521-27.702-38.893-41.06 2.846-3.313 4.879-7.683 5.78-12.583 1.326-7.204.018-14.262-3.589-19.366-6.844-9.682-14.546-18.736-21.994-27.492l-1.603-1.884c-2.522-2.968-5.715-4.342-8.045-5.344-.558-.24-1.121-.468-1.634-.745l-2.477-1.335-2.801.264c-1.128.106-2.42.124-3.788.143-4.93.068-12.486.172-18.367 5.795a106.228 106.228 0 0 1-1.825-1.525c-3.004-2.571-6.29-4.265-9.768-5.038-5.064-1.124-10.366-.226-15.332 2.597l-.856.486c-3.986 2.26-8.504 4.821-12.431 8.375-16.054 14.533-33.06 30.202-51.992 47.904-5.419 5.068-10.69 10.355-15.788 15.469-2.194 2.201-4.387 4.403-6.596 6.59l-.714.697c-1.074 1.04-2.291 2.219-3.463 3.712-8.724 11.105-9.536 16.267-2.986 27.491-.272.379-.533.751-.786 1.109-.944 1.34-1.835 2.606-2.679 3.483l-3.089 3.21c-9.355 9.724-19.028 19.779-28.799 29.296-30.005 29.22-54.582 52.907-77.348 74.544-13.97 13.277-25.817 23.929-37.286 33.521-19.692 16.473-39.519 32.474-58.932 47.558-15.72 12.213-32.207 24.116-48.15 35.627l-3.011 2.175c-5.78 4.174-11.843 8.283-17.706 12.256-4.774 3.237-9.713 6.583-14.541 9.992-5.68 4.01-11.306 8.197-16.747 12.245-2.826 2.102-5.651 4.205-8.492 6.288l-7.731 5.68c-8.173 6.009-16.346 12.017-24.576 17.946-14.898 10.729-33.438 24.082-51.306 36.677-22.365 15.764-43.067 33.637-62.355 50.593-22.628 19.894-40.686 36.218-56.833 51.374-18.248 17.13-32.311 32.718-44.257 49.057-11.087 15.162-19.805 29.24-26.652 43.037-3.527 7.103-6.339 15.023-8.354 23.535zm569.041-470.042c.882-1.375 1.819-2.732 2.88-3.971a13368.628 13368.628 0 0 1 31.465-36.628c.513-.594 1.291-.958 2.001-1.469.052.634.29 1.236.1 1.629-.713 1.471-1.356 3.054-2.401 4.273-10.641 12.415-21.356 24.766-32.056 37.131-.175.202-.4.448-.636.491-.453.083-.93.036-1.398.044.004-.508-.186-1.139.045-1.5zm-16.965 48.308c-10.737 7.503-21.503 14.966-32.34 22.323-1.544 1.048-3.486 1.535-5.281 2.177-.453.162-1.05-.075-1.58-.128.254-.622.328-1.532.792-1.821 6.004-3.758 12.173-7.261 18.08-11.164 6.378-4.213 12.515-8.789 18.778-13.177.865-.605 1.852-1.037 2.781-1.55l.764.669c-.655.903-1.129 2.066-1.994 2.671zm-103.819 89.85c-7.099 4.454-15.103 7.477-22.757 11.011-.565.261-1.679-.67-2.539-1.047.582-.499 1.09-1.145 1.757-1.474 5.388-2.655 10.985-4.934 16.182-7.917 22.125-12.701 41.871-28.734 61.757-44.561 13.036-10.375 26.105-20.709 39.143-31.08 1.482-1.179 2.863-2.485 4.29-3.732l1.285 1.16c-.338.784-.46 1.838-1.049 2.309-5.541 4.432-11.284 8.617-16.739 13.149-26.275 21.829-52.319 43.978-81.33 62.182zm-48.396 48.897c.423-.88.639-1.98 1.303-2.606 4.677-4.417 11.035-7.151 13.608-13.665 11.86-7.586 23.732-15.153 35.571-22.771 2.522-1.623 4.896-3.475 7.407-5.115.551-.359 1.401-.261 2.113-.374-.315.67-.451 1.571-.973 1.974-4.533 3.501-9.054 7.027-13.731 10.329-12.217 8.621-25.829 15.337-36.01 26.737-1.787 2.002-4.154 3.524-6.397 5.056-.725.494-1.914.309-2.891.435zm-13.479-3.988c.783-.852 1.403-2.042 2.37-2.501 7.321-3.476 14.68-6.879 22.113-10.104.965-.419 2.387.214 3.618.409-8.109 4.003-16.199 8.051-24.36 11.947-1.047.5-2.484.186-3.741.249zm-58.121 33.175c.492-.517.889-1.283 1.49-1.512 6.857-2.603 13.743-5.128 20.624-7.663.497-.183 1.023-.287 1.54-.418l1.246.851c-.498.598-.879 1.503-1.514 1.745a942.091 942.091 0 0 1-21.343 7.884c-.513.182-1.356-.57-2.043-.887zm-78.438 57.677c.73-1.049.945-1.74 1.342-1.871a2759.52 2759.52 0 0 1 26.438-8.567c.391-.124.918.179 1.381.283-.423.607-.719 1.565-1.286 1.769a1398.451 1398.451 0 0 1-24.755 8.626c-.801.27-1.827-.122-3.12-.24zm-126.307 98.962c6.65-4.706 13.354-9.337 20.061-13.962.425-.293.986-.388 1.469-.569.232.114.632.296.626.31-.279.675-.411 1.601-.93 1.958-6.71 4.617-13.471 9.161-20.239 13.691-.421.281-1.026.289-1.545.424.176-.632.143-1.558.558-1.852zm1.109-14.825c.534-.825.891-1.888 1.629-2.439 6.344-4.725 12.519-9.74 19.206-13.932 11.09-6.951 22.519-13.359 33.812-19.984.908-.532 1.874-.967 3.385-1.741.013 1.165.271 2.022-.019 2.294-.984.925-2.11 1.735-3.278 2.426-9.155 5.406-18.46 10.571-27.466 16.214-8.313 5.208-16.301 10.937-24.477 16.37-.766.51-1.853.54-2.792.792zm-75.003 108.576c5.594-6.944 11.261-13.83 16.929-20.714.331-.4.836-.656 1.628-1.258-.297 1.081-.293 1.959-.72 2.492-5.574 6.955-11.204 13.866-16.844 20.768-.314.384-.85.589-1.282.877.083-.732-.101-1.68.289-2.165zm-11.183-33.455c4.695-5.319 9.699-10.364 14.538-15.558 1.642-1.763 3.11-3.687 4.658-5.537l-.003.001c2.076-1.424 4.131-2.884 6.257-4.231.58-.368 1.407-.346 2.121-.503-.192.707-.17 1.604-.606 2.093-8 8.956-16.019 17.896-24.152 26.731-.778.845-2.332.976-3.525 1.439.207-1.506-.125-3.487.712-4.435zm-29.4 39.005c1.748-7.384 4.266-14.763 7.636-21.55 7.281-14.671 16.099-28.377 25.829-41.684 12.787-17.488 27.458-33.067 43.117-47.767 18.542-17.406 37.506-34.376 56.608-51.17 19.86-17.459 39.911-34.709 61.573-49.977 17.209-12.129 34.299-24.427 51.384-36.731 10.847-7.813 21.595-15.765 32.374-23.673 8.371-6.141 16.623-12.448 25.102-18.435 10.695-7.551 21.717-14.642 32.327-22.306 17.278-12.478 34.596-24.925 51.422-37.997 20.019-15.555 39.748-31.501 59.193-47.767 12.964-10.843 25.472-22.267 37.725-33.913 25.982-24.694 51.75-49.615 77.429-74.623 10.942-10.657 21.503-21.711 32.099-32.717 2.414-2.508 4.126-5.678 6.412-8.328 1.645-1.907 1-3.143-.161-4.994-6.186-9.859-6.101-10.664.813-19.466 1.009-1.284 2.245-2.393 3.41-3.548 7.381-7.308 14.609-14.782 22.193-21.874 17.176-16.06 34.449-32.021 51.881-47.801 3.41-3.086 7.606-5.377 11.644-7.673 2.967-1.687 5.898-2.232 8.728-1.604 1.969.437 3.89 1.442 5.742 3.027 2.081 1.781 4.234 3.481 6.414 5.142.782.596 1.571 1.064 2.332 1.232 1.142.254 2.217-.169 3.098-1.848 4.264-8.121 11.924-6.078 19.047-6.748 2.369 1.277 5.381 2.013 7.009 3.928 7.956 9.362 16.01 18.708 23.09 28.723 4.459 6.309 2.37 18.323-3.778 22.453-4.735 3.18-2.445 4.754-.262 7.36 15.939 19.018 33.323 36.624 51.456 53.508.444.439.831.833 1.289 1.283 30.284 29.739 70.848 45.625 70.849 45.634-30.941 61.794-103.706 106.389-158.494 133.973-11.503-56.653-34.439-90.95-39.174-97.93a1636.162 1636.162 0 0 0-14.927-21.279c-14.889-20.667-29.515-41.562-48.217-59.107-4.787-4.491-9.834-8.716-14.892-12.903-.803-.666-2.305-.489-3.483-.701.416.897.638 1.976 1.282 2.656 1.996 2.109 5.927 4.161 5.826 6.059-.149 2.776-2.858 5.653-4.974 8.047-23.572 26.672-47.246 53.254-70.871 79.878-1.813 2.043-3.615 4.123-5.18 6.356-9.667 13.784-20.566 26.665-29.866 40.716-.15.229-.302.46-.482.664-1.58 1.791-3.168 3.575-4.753 5.362.793-2.434 1.098-5.191 2.461-7.246 7.704-11.624 15.679-23.068 23.497-34.617.479-.706.408-1.782.593-2.686-.662.433-1.512.726-1.958 1.321-5.57 7.447-11.085 14.935-16.603 22.421-1.459 1.979-2.754 4.096-4.34 5.964-7.59 8.936-14.876 18.174-23.01 26.589-6.621 6.849-13.89 13.229-21.575 18.858-15.5 11.353-31.001 22.571-42.162 38.625-.596.857-1.938 1.195-2.932 1.775.257-.998.343-2.085.801-2.98 6.274-12.262 16.569-20.93 26.696-29.744 9.295-8.089 19.287-15.514 27.746-24.398 14.131-14.842 27.301-30.6 40.808-46.032.779-.889.956-2.306 1.411-3.478-.842.653-1.783 1.211-2.511 1.973-9.641 10.079-19.986 19.597-28.695 30.429-12.621 15.698-27.461 28.825-42.976 41.397-3.39 2.748-6.257 6.131-9.485 9.091-12.066 11.065-24.55 21.705-36.158 33.228-8.52 8.457-15.894 18.067-23.858 27.093-.71.805-2.011 1.089-3.037 1.615.309-.966.389-2.098.958-2.872 10.722-14.601 22.878-27.916 36.1-40.291 3.184-2.979 6.053-6.307 8.917-9.605.741-.852.917-2.195 1.353-3.312-.886.58-1.902 1.028-2.638 1.759-6.986 6.942-13.903 13.951-20.88 20.903-15.307 15.254-30.66 30.464-45.947 45.738-5.221 5.216-10.274 10.6-15.499 15.812-.522.521-1.699.386-2.572.556.279-.724.391-1.591.866-2.148 4.088-4.785 7.982-9.773 12.425-14.21 14.703-14.686 29.616-29.163 44.42-43.749.721-.709 1.171-1.694 1.746-2.551-1.133.34-2.544.36-3.358 1.067a4644.289 4644.289 0 0 0-33.881 29.77c-7.965 7.064-16.35 13.746-23.651 21.447-10.502 11.078-20.199 22.92-30.206 34.465-.889 1.026-1.392 2.398-2.321 3.374-.632.663-1.696.914-2.568 1.349.305-.942.415-2.015.945-2.807 13.921-20.802 30.174-39.55 49.288-55.764.627-.531 1.418-.924 1.9-1.558.892-1.171 1.611-2.473 2.402-3.72-1.391.732-2.94 1.267-4.146 2.23-5.352 4.27-10.828 8.422-15.846 13.064-8.223 7.609-16.089 15.605-24.188 23.353-2.755 2.635-5.823 4.939-8.632 7.521-8.599 7.903-17.414 15.599-25.61 23.902-5.547 5.62-10.185 12.137-15.261 18.226-.478.574-1.191.952-1.793 1.422.103-.748-.018-1.641.351-2.221 1.906-2.992 3.927-5.91 5.925-8.842 1.831-2.684 3.685-5.353 5.529-8.029-.5.21-1.044.351-1.493.64-7.742 4.998-14.952 10.45-21.759 16.883-7.603 7.187-17.503 11.954-26.482 17.648-.443.281-1.651-.644-2.501-1.007l.286 2.672c2.992-.839 5.98-1.695 8.979-2.507 1.741-.471 3.503-.866 5.254-1.296-1.321 1.455-2.549 3.013-4.002 4.324-.773.698-1.95.934-2.912 1.439-10.608 5.562-21.313 10.95-31.748 16.818-3.215 1.808-5.331 5.592-8.562 7.348-16.694 9.074-30.896 21.606-45.226 33.661-25.612 21.542-52.14 42.144-75.007 66.794-.882.951-1.475 2.171-2.194 3.274-2.294 1.206-4.626 2.346-6.849 3.671-1.16.69-1.991 2.309-3.165 2.543-11.44 2.285-15.556 12.145-20.702 20.498a267.375 267.375 0 0 0-15.797 29.672 46.706 46.706 0 0 0-2.036 5.27c.092-.569.117-1.123.256-1.709z"/><path fill="#3D3D3D" d="M840.808 343.548s5.328-5.292 7.564-7.536c.396-.397.808-.804 1.205-1.203 33.416 17.297 69.994 29.425 105.367 38.465 27.909 7.132 55.355 10.41 83.143 8.194.172.16.35.322.522.483 6.62 7.773 18.956 27.813 57.98 40.588-27.003 43.96-75.742 83.59-134.318 113.505-13.959-42.942-32.863-111.39-123.338-181.561a19.047 19.047 0 0 1-.175-.28c-.686-1.093-2.104-3.353-2.795-4.718.778-1.184 2.249-3.06 3.058-4.086.526-.672 1.171-1.251 1.787-1.851z"/><g fill="#3D3D3D"><path d="M978.76 906.006c-2.015-8.512-4.827-16.432-8.353-23.54-6.849-13.797-15.566-27.875-26.652-43.037-11.947-16.338-26.009-31.926-44.257-49.057-16.146-15.156-34.205-31.48-56.833-51.374-19.288-16.956-39.989-34.829-62.354-50.593-17.869-12.594-36.409-25.947-51.307-36.677-8.229-5.928-16.403-11.936-24.576-17.945l-7.732-5.68c-2.84-2.083-5.665-4.186-8.492-6.289-.447-.334-.928-.673-1.378-1.008a228.172 228.172 0 0 1-7.016 6.34c3.796 2.819 7.58 5.65 11.391 8.446 10.779 7.908 21.527 15.86 32.373 23.673 17.086 12.304 34.175 24.602 51.384 36.732 21.662 15.268 41.714 32.518 61.572 49.977 19.105 16.794 38.066 33.765 56.609 51.17 15.66 14.7 30.331 30.28 43.117 47.767 9.73 13.307 18.548 27.013 25.83 41.685 3.369 6.788 5.887 14.166 7.636 21.55.138.586.164 1.14.249 1.71a46.5 46.5 0 0 0-2.035-5.27 267.542 267.542 0 0 0-15.797-29.672c-5.146-8.353-9.262-18.213-20.702-20.498-1.175-.234-2.005-1.853-3.165-2.543-2.223-1.324-4.555-2.464-6.849-3.67-.719-1.103-1.312-2.323-2.195-3.275-22.866-24.65-49.395-45.252-75.006-66.793-14.332-12.055-28.533-24.587-45.227-33.661-3.231-1.756-5.347-5.54-8.561-7.348-10.435-5.868-21.141-11.256-31.748-16.818-.964-.505-2.138-.741-2.913-1.439-1.452-1.311-2.681-2.869-4.001-4.324 1.753.43 3.513.825 5.255 1.296 2.999.812 5.987 1.668 8.98 2.507l.286-2.672c-.851.363-2.058 1.287-2.501 1.007-8.979-5.694-18.88-10.461-26.482-17.647-6.808-6.434-14.018-11.885-21.758-16.883-.449-.289-.993-.43-1.493-.64 1.843 2.675 3.697 5.344 5.528 8.028 1.998 2.932 4.02 5.85 5.927 8.842.369.58.247 1.472.352 2.221-.602-.47-1.317-.848-1.794-1.422-5.075-6.089-9.713-12.606-15.26-18.226-8.197-8.303-17.012-15.999-25.61-23.902-2.81-2.582-5.878-4.886-8.632-7.521-3.382-3.234-6.716-6.517-10.059-9.792a520.418 520.418 0 0 1-3.266 2.543c8.207 9.327 15.765 19.227 22.736 29.644.531.792.64 1.865.946 2.807-.872-.435-1.938-.686-2.568-1.348-.93-.976-1.433-2.348-2.322-3.374-7.311-8.436-14.556-16.939-21.972-25.279a729.778 729.778 0 0 1-8.518 6.4c.326.332.629.73.954 1.071-.687.318-1.53 1.07-2.041.889-.35-.124-.694-.261-1.044-.386-11.471 8.436-23.233 16.641-33.72 23.773 2.563 1.894 5.155 3.763 7.655 5.695 8.458 6.531 17.568 12.06 26.379 17.407 6.237 3.784 12.686 7.698 18.646 11.833 17.196 11.927 33.664 24.124 48.956 36.253 17.439 13.832 32.71 31.039 47.476 47.681l2.157 2.429 1.317 1.483c9.257 10.419 18.831 21.193 26.945 32.437 23.265 32.245 38.85 60.44 49.047 88.732 2.417 6.699 6.063 13.502 11.154 20.8 6.052 8.685 16.008 12.227 27.311 9.718a38.083 38.083 0 0 0 1.938-.484c2.084-.577 3.887-1.361 5.478-2.053.715-.311 1.431-.627 2.159-.898 7.468-2.783 15.191-5.66 22.992-7.391 4.248-.943 8.164-1.47 11.977-1.612 10.622-.395 20.966-1.007 29.681-1.552a31.65 31.65 0 0 0 4.857-.68c6.931-1.538 12.657-5.433 16.126-10.966 3.455-5.518 4.456-12.374 2.813-19.307zM725.818 710.122a1401.367 1401.367 0 0 1-24.756-8.626c-.565-.203-.862-1.162-1.285-1.769.464-.104.99-.407 1.381-.282a2788.138 2788.138 0 0 1 26.439 8.567c.397.132.612.822 1.341 1.871-1.292.118-2.318.51-3.12.239zm73.582 50.523c-1.168-.691-2.294-1.501-3.278-2.426-.29-.273-.034-1.13-.019-2.295 1.511.774 2.477 1.209 3.384 1.741 11.294 6.625 22.724 13.033 33.814 19.984 6.686 4.192 12.86 9.206 19.205 13.932.737.55 1.094 1.613 1.629 2.438-.939-.252-2.026-.281-2.793-.792-8.176-5.432-16.163-11.161-24.477-16.369-9.004-5.641-18.31-10.807-27.465-16.213zm54.858 49.629c-6.768-4.53-13.527-9.074-20.238-13.691-.52-.358-.653-1.283-.932-1.959-.006-.014.395-.196.627-.31.483.181 1.044.276 1.469.569 6.707 4.625 13.411 9.256 20.062 13.962.416.294.382 1.22.558 1.852-.519-.135-1.123-.143-1.546-.423zm73.887 93.61c-5.639-6.902-11.27-13.813-16.842-20.768-.428-.533-.425-1.411-.72-2.492.791.602 1.297.858 1.628 1.258 5.668 6.883 11.335 13.769 16.929 20.714.391.485.208 1.433.29 2.165-.434-.288-.971-.492-1.285-.877zm9.365-31.749c-8.134-8.835-16.152-17.774-24.153-26.731-.436-.489-.414-1.385-.606-2.093.715.157 1.542.135 2.122.503 2.127 1.347 4.181 2.807 6.26 4.232l-.006-.003c1.549 1.851 3.016 3.776 4.658 5.538 4.84 5.194 9.844 10.24 14.538 15.558.836.949.505 2.929.713 4.433-1.195-.461-2.748-.592-3.526-1.437zM511.024 600.84l2.959 2.229c.844.636 1.721 1.291 2.567 1.929 6.046-4.042 12.364-8.456 18.745-13.053-.563-.387-1.137-.76-1.695-1.154-4.677-3.301-9.197-6.828-13.731-10.329-.52-.403-.657-1.304-.971-1.974.713.112 1.562.015 2.112.374 2.512 1.64 4.886 3.492 7.408 5.115 3.16 2.033 6.33 4.049 9.494 6.077a1037.79 1037.79 0 0 0 9.961-7.328c-5.947-2.61-11.924-5.187-17.37-8.604-29.01-18.204-55.054-40.353-81.329-62.18-5.457-4.532-11.198-8.717-16.74-13.149-.589-.471-.711-1.525-1.049-2.309l1.285-1.161c1.427 1.247 2.808 2.553 4.289 3.732 13.039 10.371 26.108 20.705 39.144 31.08 19.886 15.827 39.632 31.861 61.757 44.561 4.02 2.308 8.269 4.216 12.487 6.181a1279.29 1279.29 0 0 0 5.341-4.024c-11.138-15.828-26.488-26.962-41.853-38.215-7.683-5.629-14.953-12.009-21.573-18.858-8.134-8.416-15.421-17.653-23.01-26.589-1.586-1.869-2.881-3.985-4.34-5.965-5.519-7.486-11.034-14.974-16.603-22.421-.447-.596-1.296-.888-1.959-1.321.185.904.116 1.98.593 2.686 7.818 11.549 15.793 22.993 23.498 34.617 1.362 2.056 1.667 4.813 2.46 7.246-1.585-1.786-3.173-3.571-4.753-5.362-.18-.204-.329-.436-.481-.665-9.299-14.051-20.198-26.932-29.866-40.716-1.566-2.232-3.368-4.312-5.18-6.356-23.626-26.624-47.298-53.206-70.871-79.878-2.116-2.394-4.825-5.272-4.973-8.048-.103-1.898 3.829-3.95 5.824-6.059.645-.68.868-1.76 1.283-2.656-1.179.212-2.679.035-3.483.701-5.059 4.188-10.104 8.412-14.891 12.903-18.702 17.545-33.329 38.44-48.217 59.107a1625.588 1625.588 0 0 0-14.927 21.279c-4.735 6.981-27.672 41.277-39.176 97.93-54.786-27.584-127.551-72.178-158.493-133.973.002-.009 40.567-15.894 70.849-45.634.458-.449.845-.844 1.291-1.282 18.131-16.884 35.516-34.49 51.455-53.508 2.183-2.606 4.473-4.18-.262-7.36-6.147-4.13-8.237-16.144-3.777-22.453 7.079-10.015 15.133-19.361 23.089-28.723 1.628-1.915 4.64-2.651 7.008-3.928 7.124.67 14.783-1.373 19.048 6.749.881 1.678 1.955 2.101 3.098 1.848.76-.169 1.549-.637 2.331-1.232 2.18-1.661 4.333-3.361 6.415-5.142 1.85-1.585 3.773-2.589 5.741-3.027 2.83-.628 5.762-.083 8.729 1.603 4.037 2.297 8.233 4.587 11.644 7.672 17.432 15.781 34.704 31.742 51.881 47.802 7.582 7.091 14.811 14.565 22.193 21.874 1.165 1.155 2.402 2.264 3.409 3.548 6.914 8.801 7 9.607.814 19.466-1.16 1.851-1.805 3.086-.161 4.994 2.286 2.65 3.998 5.82 6.411 8.328 10.598 11.006 21.158 22.06 32.1 32.717 25.68 25.008 51.448 49.929 77.429 74.623 12.253 11.646 24.761 23.07 37.726 33.913a2103.8 2103.8 0 0 0 58.766 47.427c2.652-2.102 5.159-4.1 7.49-5.967-.447-.347-.917-.681-1.364-1.028-19.414-15.084-39.241-31.084-58.933-47.557-11.469-9.593-23.317-20.244-37.286-33.521-22.765-21.637-47.343-45.324-77.348-74.545-9.771-9.516-19.445-19.572-28.8-29.296l-3.089-3.21c-.844-.876-1.734-2.143-2.679-3.483-.253-.358-.515-.73-.786-1.109 6.55-11.224 5.738-16.386-2.985-27.491-1.173-1.493-2.389-2.671-3.463-3.712l-.715-.697a1280.719 1280.719 0 0 1-6.596-6.59c-5.098-5.113-10.369-10.401-15.789-15.469-18.932-17.702-35.937-33.371-51.992-47.904-3.927-3.555-8.445-6.116-12.431-8.375l-.855-.486c-4.967-2.823-10.269-3.721-15.333-2.597-3.478.772-6.765 2.467-9.769 5.037a106.02 106.02 0 0 1-1.824 1.526c-5.881-5.624-13.438-5.728-18.367-5.796-1.368-.019-2.66-.036-3.788-.143l-2.801-.264-2.479 1.335c-.513.277-1.076.505-1.633.745-2.331 1.002-5.522 2.375-8.046 5.344l-1.601 1.884c-7.45 8.756-15.15 17.81-21.995 27.492-3.609 5.103-4.914 12.162-3.59 19.365.902 4.9 2.935 9.27 5.781 12.583-11.372 13.359-24.215 26.916-38.893 41.06a180.351 180.351 0 0 1-13.292 12.489c-.801.736-1.57 1.463-2.381 2.203-2.976 2.717-6.439 5.151-10.226 7.412-22.627 15.41-43.231 25.049-67.207 31.526 42.133 96.943 174.844 153.065 184.559 155.781 2.441-18.82 14.85-93.019 62.674-135.638 4.834 3.906 9.702 7.775 14.569 11.644 10.48 8.334 21.319 16.951 31.571 25.765 7.799 6.704 15.392 14.15 22.737 21.35 3.197 3.135 6.394 6.271 9.625 9.367a5272.71 5272.71 0 0 1 15.789 15.211c10.916 10.547 22.204 21.452 33.528 32.001a1119.635 1119.635 0 0 0 39.591 35.149c8.115 6.874 16.672 13.289 24.945 19.493l4.577 3.441zm-101.26-163.377c-.468-.007-.945.04-1.397-.044-.236-.043-.462-.288-.636-.491-10.699-12.365-21.414-24.716-32.055-37.131-1.046-1.219-1.689-2.802-2.402-4.273-.191-.393.049-.995.099-1.629.711.511 1.489.875 2.002 1.469 10.51 12.19 20.999 24.399 31.464 36.628 1.063 1.239 1.998 2.596 2.881 3.971.231.362.04.993.044 1.5zm14.925 44.137l.765-.669c.93.513 1.916.944 2.782 1.55 6.263 4.387 12.4 8.964 18.777 13.177 5.908 3.902 12.078 7.406 18.081 11.164.464.289.539 1.199.793 1.821-.531.054-1.128.291-1.581.129-1.796-.643-3.738-1.128-5.281-2.177-10.837-7.358-21.604-14.82-32.34-22.323-.864-.605-1.34-1.769-1.996-2.672z"/><path d="M560.863 561.152c.436 1.117.611 2.46 1.352 3.312 1.285 1.48 2.58 2.96 3.895 4.418l1.893-1.462c-1.5-1.502-2.997-3.012-4.503-4.508-.735-.731-1.753-1.18-2.637-1.76zm-25.211-14.947c-15.514-12.573-30.355-25.699-42.977-41.398-8.708-10.831-19.053-20.349-28.693-30.428-.728-.762-1.669-1.32-2.511-1.973.454 1.171.631 2.588 1.41 3.477 13.507 15.432 26.677 31.19 40.809 46.032 8.46 8.884 18.449 16.309 27.745 24.398 9.915 8.63 19.94 17.167 26.247 29.028a1172.6 1172.6 0 0 0 5.251-4.013c-5.93-5.344-11.913-10.638-17.795-16.033-3.228-2.959-6.096-6.342-9.486-9.09zM248.397 260.397c-7.545-3.373-14.523-2.56-20.118 3.68-5.635 6.284-10.532 13.233-16.231 19.45-6.117 6.674-6.68 13.901-3.898 21.993 1.001 2.908 1.717 5.736 5.498 6.227 2.86.371 3.859 2.314 3.659 4.958 1.066-.977 2.29-1.851 3.055-3.025 1.871-2.866 3.074-6.248 5.264-8.811 7.781-9.109 15.898-17.927 23.807-26.93 2.769-3.154 6.851-6.339 1.081-10.521-.408-.296-.531-1.891-.193-2.176 4.371-3.672.25-3.873-1.924-4.845zm537.122 468.536c-.281-.633-.386-1.549-.874-1.856-4.746-2.982-9.49-5.983-14.399-8.676-1.025-.561-2.628-.062-4.013.039 5.936 3.52 11.863 7.051 17.823 10.528.359.21.969-.013 1.463-.035zm-19.286-10.492a4.22 4.22 0 0 0-.09-.053l-.136-.038-.013.116c.077-.003.161-.02.239-.025zM161.557 381.468c-.172.16-.35.322-.522.483-6.621 7.773-18.956 27.812-57.98 40.587 27.002 43.96 75.741 83.59 134.318 113.505 13.957-42.942 32.862-111.39 123.336-181.561.06-.092.118-.186.176-.28.687-1.093 2.103-3.353 2.795-4.718-.778-1.184-2.249-3.06-3.057-4.086-.526-.671-1.171-1.25-1.786-1.85 0 0-5.328-5.292-7.563-7.536l-1.207-1.203c-33.415 17.297-69.994 29.425-105.366 38.465-27.911 7.132-55.356 10.409-83.144 8.194zm54.919-63.698c.277-.232.561-.455.833-.69.017-.135-.011-.244-.002-.375-.078.072-.165.139-.241.212-.202.28-.39.572-.59.853z"/></g><g fill="#97BA9C"><circle cx="390.494" cy="216.726" r="20.388"/><circle cx="824.037" cy="216.726" r="20.388"/></g><g fill="#97BA9C"><circle cx="390.494" cy="1004.264" r="20.388"/><circle cx="824.037" cy="1004.264" r="20.388"/></g><path d="M102.568 639.21v8.271H74.761v13.793h24.974v7.831H74.761v13.936h28.701v8.277H65.964V639.21h36.604zm42.828 6.86c-2.56 0-4.659.52-6.299 1.566-1.641 1.04-2.461 2.619-2.461 4.73 0 2.117.82 3.727 2.461 4.847 1.641 1.121 5.129 2.322 10.472 3.615 5.343 1.294 9.37 3.108 12.079 5.442 2.709 2.334 4.061 5.776 4.061 10.326 0 4.544-1.712 8.234-5.141 11.069-3.43 2.835-7.928 4.247-13.493 4.247-8.153 0-15.384-2.804-21.696-8.419l5.52-6.637c5.265 4.575 10.735 6.86 16.399 6.86 2.832 0 5.08-.607 6.745-1.827 1.665-1.219 2.498-2.835 2.498-4.847s-.783-3.578-2.346-4.699c-1.566-1.114-4.262-2.136-8.088-3.052-3.829-.922-6.736-1.764-8.723-2.538-1.99-.768-3.755-1.777-5.293-3.015-3.083-2.34-4.621-5.919-4.621-10.735 0-4.822 1.752-8.537 5.256-11.15 3.501-2.606 7.837-3.913 13.007-3.913 3.33 0 6.636.551 9.915 1.641 3.281 1.096 6.113 2.637 8.5 4.625l-4.699 6.63c-1.538-1.387-3.628-2.532-6.262-3.43-2.637-.891-5.234-1.336-7.791-1.336zm65.787 1.188v44.06h-8.797v-44.06h-15.802v-8.048h40.405v8.048h-15.806zm79.692-1.226c5.021 4.544 7.531 10.871 7.531 18.969 0 8.104-2.436 14.511-7.308 19.235-4.869 4.724-12.326 7.082-22.364 7.082H251.44V639.21h17.892c9.341 0 16.523 2.272 21.543 6.822zm-1.34 19.192c0-11.923-6.835-17.891-20.501-17.891h-8.797v35.709h9.766c6.312 0 11.144-1.498 14.499-4.507 3.355-3.01 5.033-7.442 5.033-13.311zm628.033-26.014h18.938v52.108h-8.352v-44.283h-10.586v-7.825zm60.98 44.803c4.619 0 8.023-1.566 10.215-4.699 2.185-3.126 3.3-7.355 3.349-12.673-1.238 1.393-3.027 2.699-5.368 3.912-2.334 1.22-4.916 1.826-7.751 1.826-4.674 0-8.587-1.547-11.738-4.655-3.157-3.108-4.736-7.231-4.736-12.376s1.702-9.28 5.108-12.413 7.689-4.699 12.858-4.699c8.352 0 14.115 3.727 17.297 11.187 1.789 4.272 2.681 9.095 2.681 14.462 0 5.368-.57 9.837-1.715 13.416-1.145 3.578-2.706 6.414-4.693 8.5-3.882 4.073-8.636 6.11-14.276 6.11-5.646 0-10.754-1.764-15.322-5.293l4.396-6.482c1.145.99 2.674 1.888 4.587 2.681 1.913.8 3.616 1.196 5.108 1.196zm1.603-19.383c3.003 0 5.516-.83 7.528-2.495 2.012-1.666 3.021-3.826 3.021-6.488 0-2.656-.972-4.946-2.909-6.859s-4.359-2.866-7.268-2.866c-2.91 0-5.306.854-7.194 2.569-1.888 1.715-2.836 3.913-2.836 6.6 0 2.681.86 4.946 2.575 6.785 1.716 1.837 4.075 2.754 7.083 2.754zm50.802-22.517c3.331-2.631 7.503-3.95 12.524-3.95s9.194 1.319 12.524 3.95c3.331 2.637 4.996 5.956 4.996 9.955s-1.863 7.541-5.59 10.624c5.015 3.182 7.528 7.652 7.528 13.415 0 4.476-1.789 8.228-5.368 11.261-3.578 3.034-8.277 4.544-14.09 4.544s-10.512-1.51-14.09-4.544c-3.578-3.034-5.368-6.785-5.368-11.261 0-5.764 2.507-10.233 7.528-13.415-3.727-3.083-5.59-6.625-5.59-10.624s1.666-7.317 4.996-9.955zm5.219 39.999c2.285 1.467 4.724 2.198 7.305 2.198s5.021-.731 7.305-2.198 3.429-3.566 3.429-6.302c0-2.73-1.096-4.841-3.281-6.333-2.186-1.492-4.668-2.235-7.454-2.235s-5.269.743-7.454 2.235c-2.192 1.492-3.281 3.603-3.281 6.333.002 2.737 1.147 4.836 3.431 6.302zm.706-23.704c1.863 1.517 4.067 2.272 6.599 2.272s4.736-.755 6.599-2.272c1.863-1.517 2.792-3.38 2.792-5.596 0-2.21-.929-4.061-2.792-5.553-1.863-1.486-4.067-2.235-6.599-2.235s-4.736.749-6.599 2.235c-1.863 1.492-2.792 3.343-2.792 5.553 0 2.215.929 4.079 2.792 5.596zm72.873 1.151c1.492-2.037 2.235-4.098 2.235-6.185 0-2.087-.792-3.863-2.384-5.33-1.591-1.468-3.603-2.198-6.036-2.198-4.278 0-7.832 2.186-10.661 6.556l-7.082-4.099c2.284-3.429 4.81-6.011 7.565-7.751 2.761-1.74 6.308-2.612 10.661-2.612 4.346 0 8.166 1.381 11.441 4.135 3.281 2.761 4.922 6.525 4.922 11.298 0 2.681-.693 5.244-2.086 7.677-1.393 2.433-3.95 5.566-7.677 9.392l-12.227 12.45h23.63v8.426h-35.635v-7.454l15.806-15.879c3.529-3.578 6.036-6.389 7.528-8.426zM66.86 714.713h220.033v6.345H66.86zm847.143 0h220.033v6.345H914.003z" fill="#726767"/></svg>