<svg xmlns="http://www.w3.org/2000/svg" viewBox="0 0 1200 1200"><g fill="#3D3D3D"><path d="M416.782 455.588l-21.092 60.046c-17.855 51.127-40.984 117.662-43.822 125.375-26.374 71.811-38.139 105.082-38.954 126.182-.807 20.284 6.897 35.702 27.589 35.702 4.467 0 8.528 4.06 8.528 8.927-.407 4.46-4.06 8.52-8.927 8.52-31.242-.815-44.229-23.529-44.229-53.149 0-24.344 14.61-65.729 39.762-131.865l6.897-19.07H237.858c-2.03 5.682-3.653 10.957-5.275 16.232-20.692 63.699-40.984 124.959-112.388 124.959C74.752 757.448 50 725.807 50 684.422c0-49.096 42.607-85.206 87.643-86.021 4.867 0 8.52 4.06 8.52 8.52 0 4.867-3.652 8.927-8.52 8.927-36.117 0-70.604 29.619-70.604 68.973 0 32.057 18.67 55.586 53.556 55.586 58.431 0 76.686-55.586 95.348-113.195 1.223-3.653 2.438-7.713 3.653-10.957h-17.04c-4.867 0-8.52-4.06-8.52-8.52 0-4.867 3.653-8.927 8.52-8.927h22.722l6.897-21.1c9.335-29.212 20.692-66.136 36.517-94.94l1.215-2.438c-17.447-4.052-33.272-8.919-48.281-13.387-25.967-8.112-50.311-15.824-77.493-15.824-26.782 0-53.149 26.374-53.149 53.556 0 30.027 19.469 43.414 47.059 43.414 11.773 0 24.752-3.245 36.924-8.52 1.215-.407 2.438-.807 4.06-.807 5.675 0 8.112 5.275 8.112 8.52 0 3.245-1.622 6.082-4.867 7.705-14.202 6.497-30.027 10.142-44.629 10.142-39.362 0-63.706-23.937-63.706-59.231 0-39.362 34.487-71.819 70.196-71.819 30.027 0 55.179 7.713 82.768 16.232 16.632 5.275 34.487 10.949 54.372 14.602 9.327-8.927 17.04-14.602 25.967-19.469 1.215-.815 2.837-1.223 4.052-1.223 6.09 0 8.52 5.275 8.52 8.52s-1.622 6.09-4.867 7.713c-12.98 7.305-25.152 17.855-31.242 30.427-14.602 27.19-25.967 63.299-35.294 92.103l-4.875 15.824h105.09c8.927-25.559 20.692-59.646 31.242-88.858 10.949-31.641 19.877-57.608 21.1-60.453 1.215-3.245 4.46-5.275 7.705-5.275 6.896.001 10.141 6.091 8.111 11.366z"/><path d="M477.267 646.283c0 1.215-.407 2.43-.815 3.645-19.477 43.822-40.577 85.206-74.656 85.206-19.477 0-30.027-15.417-29.212-34.079 1.215-31.649 30.027-105.898 47.874-152.149 1.223-3.652 4.468-5.682 7.713-5.682 5.275 0 10.55 4.06 8.112 10.957-39.354 110.765-46.659 129.427-46.659 146.874 0 11.765 3.653 17.04 12.172 17.04 25.16 0 43.821-41.792 58.831-75.063 1.622-3.245 4.867-5.275 8.112-5.275 1.223 0 2.03.407 3.253.815 3.245 1.214 5.275 4.459 5.275 7.711zm-46.26-137.547c0-7.712 6.49-13.795 14.202-13.795 7.713 0 13.795 6.082 13.795 13.795s-6.082 13.795-13.795 13.795c-7.712 0-14.202-6.082-14.202-13.795z"/><path d="M631.445 646.283c0 1.215-.408 2.022-.807 3.245-8.528 30.019-34.894 59.638-62.891 59.638-11.765 0-21.907-4.46-27.997-10.55-16.632 22.315-37.324 38.547-60.861 37.74-15.417-.815-24.744-6.09-29.212-17.047-18.254 50.719-34.894 96.97-38.946 109.142-1.223 3.653-4.468 5.683-8.12 5.683-6.082 0-10.142-6.082-8.112-11.357l45.444-126.997c23.122-63.291 46.659-128.62 51.526-141.192l2.438-6.498c1.215-3.653 4.46-5.675 8.112-5.675 6.082 0 10.142 6.082 8.112 11.357l-3.245 8.52c11.357-11.765 24.344-19.877 39.354-19.877 25.567 0 34.087 21.092 34.087 46.251 0 27.997-16.64 73.433-31.242 95.348 4.867 5.275 11.765 8.112 19.07 8.112 21.499 0 40.161-26.374 46.659-49.096 1.622-3.245 4.46-5.275 7.705-5.275 1.223 0 2.438.407 3.652.815 3.244 1.216 5.274 4.461 5.274 7.713zm-86.42 2.43c-1.215 3.653-1.622 7.305-2.03 10.55 11.765-24.752 19.885-51.119 19.885-71.411 0-17.04-3.653-28.397-15.825-28.397-33.272 0-58.024 62.076-74.248 103.052-6.09 17.04-8.927 22.315-8.927 35.709 0 14.194 4.06 20.692 15.417 21.092 18.662.408 36.109-14.602 49.904-35.702-5.275-12.172-4.06-27.997-.807-39.354.807-4.06 4.46-6.497 8.112-6.497 5.682.001 9.734 5.276 8.519 10.958z"/><path d="M667.562 735.133c-33.671 0-61.261-26.374-61.261-59.239 2.43-36.509 22.722-60.454 55.179-60.454 21.1 0 38.139 18.67 38.946 40.984 0 4.867-3.652 8.52-8.52 8.52-4.867 0-8.52-3.653-8.52-8.52-.807-13.795-10.957-23.937-21.499-23.937-22.323 0-36.924 18.662-38.547 43.406 0 24.752 20.692 42.199 44.221 42.199 32.864 0 56.402-21.499 57.209-55.179-.408-17.855-6.49-29.619-27.997-67.351a89.53 89.53 0 0 0-8.112 9.327c-1.623 2.03-4.06 3.253-6.49 3.253-2.03 0-4.467-.408-6.09-2.03-2.022-1.623-2.837-4.468-2.837-6.897 0-1.623.815-3.653 2.03-5.275 4.867-5.682 8.927-10.142 13.795-15.017-3.653-8.52-6.09-17.439-6.09-26.774 0-21.1 12.987-38.954 29.619-38.954 11.764 0 18.662 9.335 19.477 21.1 0 16.232-10.142 34.087-22.722 48.281 21.1 38.954 32.057 53.156 32.457 80.746-.806 43.815-33.263 71.811-74.248 71.811zm47.067-200.837c0-5.675-4.46-4.46-8.52-.407-4.867 4.875-6.082 12.172-6.082 17.854 0 4.468.807 8.52 2.022 12.987 6.498-8.927 12.58-21.507 12.58-30.434zm157.44 111.987c0 1.215-.408 2.43-.815 3.645-23.529 50.719-46.251 85.206-83.575 85.206-19.477 0-30.027-14.602-30.027-34.079 0-15.01 10.142-50.312 23.13-83.583l20.692-58.016h-25.567c-4.867 0-8.52-3.653-8.52-8.52 0-4.467 3.653-8.52 8.52-8.52h31.242c.815-1.622 20.692-58.831 21.1-60.462 1.223-3.644 4.468-5.674 8.12-5.674 6.082 0 10.142 6.082 8.112 11.357 1.215-2.43-16.232 47.066-19.07 54.779h27.182c4.867 0 8.52 4.052 8.52 8.52 0 4.867-3.653 8.52-8.52 8.52H819.32c-2.43 7.705-9.327 26.367-22.722 64.106-16.632 47.066-21.907 65.729-21.907 77.493 0 10.957 4.867 17.04 12.987 17.04 29.212 0 48.689-33.672 67.759-75.463 1.623-2.845 4.867-4.875 8.112-4.875 1.215 0 2.43.407 3.653.815 2.837 1.621 4.867 4.459 4.867 7.711z"/><path d="M1000.688 646.683c0 1.223-.408 2.03-.807 3.245-26.375 58.431-57.209 85.206-98.185 85.206-33.679 0-53.964-22.314-53.157-55.586 2.438-51.934 44.629-136.324 92.511-136.324 20.284 0 34.487 10.55 34.487 30.027 0 43.006-60.453 68.973-105.49 79.931-2.845 10.542-4.06 18.254-4.468 26.774-.807 23.13 12.172 37.332 36.517 38.139 33.272.815 59.239-22.722 81.961-75.063 2.03-4.052 6.897-6.082 11.357-4.46 3.244 1.621 5.274 4.866 5.274 8.111zm-42.199-73.433c0-10.957-8.512-12.987-17.439-12.987-27.997 0-51.526 42.199-64.514 73.441 33.68-10.55 81.953-30.435 81.953-60.454z"/><path d="M1150 646.283c0 1.215-.407 2.43-.807 3.645-26.374 60.461-46.659 85.206-74.248 85.206h-.408c-19.07 0-28.812-14.202-28.812-34.079 0-8.112 1.223-16.232 4.06-26.375 3.245-12.979 21.1-66.943 24.752-75.871-30.834-10.142-35.302-11.764-44.229-16.232-1.622 4.875-4.46 10.55-36.916 81.553-1.623 3.245-4.468 4.867-7.305 4.867-1.623 0-2.845-.4-4.06-.807-2.837-1.623-4.867-4.467-4.867-7.713 0-1.215.407-2.43.815-3.652l32.457-70.596 4.867-12.172c-12.172-8.52-20.692-19.07-20.692-34.079 0-16.632 11.765-26.374 24.752-26.374 14.602 0 23.529 10.55 23.529 26.782 0 6.49-1.623 10.142-6.49 25.967 11.357 5.675 25.152 10.142 36.916 14.202 5.682 1.623 10.957 3.245 15.425 4.867 4.46 1.623 6.49 6.897 4.867 11.765-5.275 13.387-24.752 71.411-27.19 81.553-2.43 8.52-3.245 15.417-3.644 22.315 0 10.142 3.245 17.04 12.172 17.04 19.877 0 35.294-22.722 58.423-75.063 1.623-3.245 4.46-5.275 7.705-5.275 1.223 0 2.438.407 3.653.815 3.245 1.621 5.275 4.459 5.275 7.711zm-130.642-115.64c-5.275 0-7.713 3.245-7.713 7.713 0 6.49 3.653 13.795 9.735 18.662 2.03-5.683 4.468-12.98 4.468-17.04 0-6.897-3.245-9.335-6.49-9.335z"/></g><path fill="#97BA9C" d="M600.008 1035.223c-50.547 0-100.074-8.59-147.207-25.52-4.17-1.505-6.337-6.098-4.836-10.267 1.493-4.178 6.078-6.341 10.267-4.844 45.385 16.311 93.083 24.58 141.776 24.58 4.315 0 8.614-.063 12.893-.196 4.476-.235 8.132 3.347 8.269 7.783.137 4.428-3.347 8.128-7.775 8.269a450.98 450.98 0 0 1-13.387.195zm92.632-10.064a8.029 8.029 0 0 1-7.826-6.286 8.031 8.031 0 0 1 6.094-9.578c2.567-.564 5.126-1.16 7.677-1.771 4.307-1.058 8.637 1.607 9.684 5.917a8.019 8.019 0 0 1-5.921 9.68 450.627 450.627 0 0 1-7.96 1.85 8.398 8.398 0 0 1-1.748.188zm83.595-27.872a8.02 8.02 0 0 1-7.313-4.71 8.031 8.031 0 0 1 3.994-10.628c48.042-21.773 91.107-52.098 128-90.128a8.03 8.03 0 0 1 11.349-.172 8.023 8.023 0 0 1 .172 11.349c-38.3 39.479-83.011 70.964-132.891 93.576a8.024 8.024 0 0 1-3.311.713zm-393.239-21.209a8.04 8.04 0 0 1-4.076-1.113 466.309 466.309 0 0 1-7.003-4.232c-3.774-2.32-4.953-7.266-2.63-11.044a8.013 8.013 0 0 1 11.04-2.626 438.758 438.758 0 0 0 6.76 4.076 8.028 8.028 0 0 1-4.091 14.939zm-70.854-52.404a7.96 7.96 0 0 1-5.404-2.101c-40.624-37.058-73.465-80.785-97.609-129.968-1.956-3.974-.314-8.786 3.664-10.738 3.989-1.952 8.79-.314 10.742 3.668 23.259 47.365 54.893 89.485 94.019 125.187a8.02 8.02 0 0 1 .521 11.333 7.988 7.988 0 0 1-5.933 2.619zm644.709-80.707a8.027 8.027 0 0 1-4.413-1.325 8.035 8.035 0 0 1-2.281-11.122 418.274 418.274 0 0 0 4.284-6.623c2.371-3.747 7.324-4.875 11.075-2.485 3.743 2.367 4.856 7.328 2.485 11.075a450.227 450.227 0 0 1-4.44 6.874 8.034 8.034 0 0 1-6.71 3.606zm49.994-365.637a8.032 8.032 0 0 1-7.642-5.581 370.615 370.615 0 0 0-2.473-7.469 8.024 8.024 0 0 1 4.996-10.189c4.201-1.419 8.755.799 10.193 5.001.882 2.579 1.74 5.165 2.575 7.767a8.025 8.025 0 0 1-5.2 10.087 8.083 8.083 0 0 1-2.449.384zm-781.418-74.899a7.983 7.983 0 0 1-3.86-.996 8.016 8.016 0 0 1-3.163-10.894 417.077 417.077 0 0 1 4.009-7.14c2.21-3.848 7.117-5.15 10.957-2.963 3.844 2.21 5.169 7.117 2.963 10.957a458.124 458.124 0 0 0-3.868 6.874 8.017 8.017 0 0 1-7.038 4.162zm745.952-5.729a8.03 8.03 0 0 1-6.98-4.052c-26.151-45.867-60.309-85.974-101.524-119.199a8.025 8.025 0 0 1-1.211-11.286 8.016 8.016 0 0 1 11.283-1.207c42.787 34.487 78.249 76.122 105.396 123.744 2.195 3.848.854 8.747-2.998 10.95a8.01 8.01 0 0 1-3.966 1.05zm-695.742-66.709a8.027 8.027 0 0 1-6.086-13.254c35.788-41.713 78.489-75.878 126.911-101.548 3.915-2.085 8.774-.572 10.851 3.331 2.073 3.919.584 8.778-3.335 10.856-46.639 24.721-87.773 57.632-122.248 97.817a8 8 0 0 1-6.093 2.798zm525.448-98.992a8.016 8.016 0 0 1-3.774-.948 425.098 425.098 0 0 0-7.003-3.652 8.028 8.028 0 0 1-3.488-10.801c2.014-3.95 6.839-5.502 10.801-3.496a479.704 479.704 0 0 1 7.254 3.794 8.025 8.025 0 0 1-3.79 15.103zm-326.856-31.375a8.023 8.023 0 0 1-7.669-5.675c-1.301-4.232 1.082-8.724 5.318-10.024 2.598-.8 5.2-1.568 7.818-2.328a8.022 8.022 0 0 1 9.938 5.486 8.02 8.02 0 0 1-5.479 9.938 474.775 474.775 0 0 0-7.567 2.25 7.95 7.95 0 0 1-2.359.353zm245.252-1.889a7.968 7.968 0 0 1-2.242-.321c-50.194-14.571-103.676-19.642-155.841-14.845-4.421.47-8.316-2.853-8.72-7.266-.404-4.413 2.845-8.316 7.262-8.724 54.164-4.938 109.664.282 161.774 15.425 4.256 1.231 6.705 5.69 5.471 9.946a8.031 8.031 0 0 1-7.704 5.785z"/><path d="M424.297 390.701c-4.964 4.122-11.107 5.54-18.419 4-7.309-1.539-13.451-5.549-18.417-11.793-4.969-6.251-7.451-13.108-7.451-20.349 0-7.24 2.482-12.47 7.451-15.925 4.966-3.45 11.107-4.293 18.417-2.754 7.313 1.539 13.455 4.975 18.419 10.547 4.966 5.574 7.45 11.89 7.45 19.13 0 7.241-2.484 13.021-7.45 17.144zm-6.083-31.708c-3.349-4.024-7.461-6.498-12.337-7.524-4.875-1.026-8.991-.286-12.337 2.318-3.349 2.606-5.027 6.334-5.027 11.275 0 4.947 1.678 9.634 5.027 13.961 3.35 4.333 7.462 7.058 12.337 8.084 4.875 1.027 8.988.031 12.337-2.877 3.348-2.907 5.027-6.877 5.027-11.824 0-4.941-1.675-9.383-5.027-13.413zm77.29 8.357c0 8.108-3.54 13.415-10.614 15.685a1886.288 1886.288 0 0 0 12.863 17.388c-4.218.208-6.327.291-10.545.407-4.695-6.48-7.043-9.748-11.739-16.353a338.16 338.16 0 0 1-10.893-.139l-.001 16.52c-3.318-.088-4.977-.15-8.296-.311v-49.135c7.311.356 10.967.439 18.277.45 7.498.012 12.864 1.104 16.097 3.523 3.234 2.418 4.851 6.389 4.851 11.965zm-11.037 7.327c1.688-1.49 2.531-3.842 2.531-7.053s-.868-5.391-2.6-6.548c-1.736-1.157-4.828-1.691-9.28-1.692a333.843 333.843 0 0 1-10.542-.139v17.57c4.133.11 6.199.136 10.333.139 4.683.004 7.872-.788 9.558-2.277zm37.043-25.08c3.318-.303 4.978-.465 8.296-.808v49.135c-3.319.343-4.978.506-8.296.808v-49.135zm70.015 16.119c3.318-.512 4.976-.769 8.294-1.285v16.797c-4.64 5.835-11.273 9.425-19.892 10.717-7.265 1.09-13.346-.434-18.242-4.535-4.894-4.098-7.346-9.828-7.346-17.141 0-7.312 2.495-13.725 7.486-19.291 4.991-5.561 11.024-8.865 18.101-9.927 7.075-1.061 12.956.088 17.643 3.483l-4.427 7.014c-1.924-1.344-3.858-2.183-5.801-2.518-1.944-.335-4.206-.309-6.785.078-4.966.746-9.136 2.964-12.51 6.652-3.374 3.694-5.063 8.144-5.063 13.372 0 5.223 1.642 9.192 4.922 11.884s7.251 3.699 11.913 3c4.665-.699 8.565-2.309 11.707-4.806v-13.494zm33.246-30.388c3.318-.506 4.978-.756 8.296-1.25v49.135c-3.318.494-4.978.744-8.296 1.25v-49.135zm72.825-8.958c3.318-.257 4.978-.374 8.296-.581v49.135c-3.599.225-5.398.353-8.998.636-11.134-13.465-16.701-20.053-27.835-33.075l-.001 35.848c-3.318.393-4.977.598-8.295 1.021v-49.135a785.19 785.19 0 0 1 8.295-1.021c11.416 13.326 17.124 20.071 28.539 33.866l-.001-36.694zm42.95 36.452a4661.574 4661.574 0 0 0-4.921 11.143 353.38 353.38 0 0 0-8.857.086c8.659-19.826 12.99-29.64 21.649-49.008 3.543.117 5.314.196 8.857.398 8.661 20.149 12.99 30.348 21.652 51.059a271.539 271.539 0 0 0-8.857-.958 4676.68 4676.68 0 0 0-4.922-11.604c-9.84-.785-14.761-.99-24.601-1.116zm21.226-6.798a4840.415 4840.415 0 0 0-8.925-20.757 4641.11 4641.11 0 0 0-8.929 19.951c7.142.153 10.712.307 17.854.806zm38.03 23.749c-.002-19.654 0-29.481 0-49.135 3.318.64 4.978.985 8.296 1.726l-.001 41.265c8.969 2.003 13.454 3.186 22.423 5.982l.001 7.871c-12.287-3.833-18.431-5.339-30.719-7.709zM507.314 833.595h17.855v49.135h-7.873v-41.756h-9.982v-7.379zm57.498 42.248c4.358 0 7.567-1.476 9.631-4.433 2.062-2.951 3.115-6.931 3.164-11.95-1.174 1.316-2.86 2.543-5.063 3.692-2.203 1.15-4.64 1.724-7.309 1.724-4.405 0-8.097-1.465-11.073-4.394-2.977-2.929-4.463-6.82-4.463-11.673 0-4.847 1.606-8.749 4.817-11.701 3.209-2.951 7.251-4.427 12.124-4.427 7.873 0 13.309 3.515 16.31 10.54 1.686 4.035 2.529 8.578 2.529 13.641 0 5.057-.539 9.28-1.617 12.651-1.078 3.371-2.554 6.047-4.427 8.014-3.656 3.841-8.144 5.765-13.461 5.765-5.32 0-10.134-1.664-14.445-4.991l4.145-6.119c1.078.94 2.52 1.785 4.325 2.531 1.801.755 3.407 1.13 4.813 1.13zm1.512-18.278c2.835 0 5.201-.785 7.099-2.354 1.898-1.57 2.847-3.609 2.847-6.118 0-2.504-.912-4.659-2.741-6.467-1.827-1.802-4.112-2.703-6.854-2.703s-5.002.807-6.782 2.421c-1.782 1.62-2.672 3.692-2.672 6.224 0 2.531.807 4.665 2.426 6.395 1.617 1.735 3.841 2.602 6.677 2.602zm47.905-21.229c3.139-2.482 7.077-3.725 11.811-3.725 4.731 0 8.669 1.244 11.808 3.725 3.139 2.482 4.709 5.61 4.709 9.385 0 3.769-1.758 7.113-5.27 10.015 4.731 3.001 7.099 7.218 7.099 12.651 0 4.223-1.688 7.76-5.063 10.617-3.374 2.857-7.801 4.289-13.284 4.289-5.483 0-9.913-1.431-13.287-4.289-3.374-2.857-5.06-6.395-5.06-10.617 0-5.433 2.366-9.65 7.099-12.651-3.515-2.902-5.273-6.246-5.273-10.015.002-3.775 1.572-6.903 4.711-9.385zm4.922 37.711c2.156 1.382 4.452 2.072 6.889 2.072 2.435 0 4.731-.691 6.889-2.072 2.153-1.382 3.233-3.361 3.233-5.936 0-2.581-1.033-4.571-3.095-5.975-2.062-1.41-4.405-2.111-7.028-2.111-2.625 0-4.969.702-7.031 2.111-2.062 1.404-3.092 3.393-3.092 5.975.002 2.576 1.08 4.554 3.235 5.936zm.669-22.351c1.758 1.432 3.83 2.144 6.221 2.144 2.39 0 4.463-.713 6.221-2.144s2.636-3.189 2.636-5.273-.879-3.83-2.636-5.234c-1.758-1.409-3.83-2.111-6.221-2.111s-4.463.702-6.221 2.111c-1.758 1.404-2.636 3.151-2.636 5.234s.878 3.841 2.636 5.273zm68.709 1.089c1.407-1.924 2.109-3.863 2.109-5.837 0-1.968-.749-3.642-2.25-5.024-1.5-1.382-3.399-2.073-5.693-2.073-4.032 0-7.381 2.062-10.054 6.185l-6.677-3.863c2.155-3.233 4.532-5.671 7.135-7.312 2.601-1.642 5.95-2.46 10.051-2.46s7.697 1.299 10.792 3.902c3.093 2.598 4.637 6.146 4.637 10.645 0 2.531-.655 4.947-1.968 7.241-1.313 2.299-3.725 5.251-7.24 8.86l-11.527 11.739h22.282v7.942h-33.602v-7.03l14.904-14.973c3.329-3.372 5.695-6.019 7.101-7.942z" fill="#726767"/></svg>