<svg xmlns="http://www.w3.org/2000/svg" viewBox="0 0 1200 1200"><path d="M489.449 260.302h8.091v18.062h21.081v-18.062h8.092v42.278h-8.092v-17.154H497.54v17.154h-8.091v-42.278zm65.831 0h8.092v42.278h-8.092v-42.278zm65.29 21.261h7.062v16.066c-2.213 1.65-4.829 2.987-7.848 4.017-3.019 1.024-5.98 1.539-8.882 1.539-4.144 0-7.922-.966-11.323-2.902-3.401-1.931-6.091-4.558-8.06-7.879-1.974-3.322-2.961-6.993-2.961-11.021 0-4.027 1.003-7.683 3.019-10.962 2.011-3.284 4.76-5.879 8.245-7.794 3.481-1.91 7.338-2.865 11.562-2.865 3.024 0 6.001.541 8.94 1.629s5.476 2.579 7.609 4.468l-4.59 5.98a17.345 17.345 0 0 0-5.587-3.56c-2.112-.849-4.234-1.268-6.372-1.268-2.653 0-5.099.631-7.338 1.9a13.985 13.985 0 0 0-5.279 5.226c-1.289 2.213-1.937 4.632-1.937 7.248 0 2.658.658 5.094 1.963 7.306 1.311 2.213 3.072 3.969 5.285 5.253 2.213 1.289 4.669 1.937 7.37 1.937 1.448 0 2.966-.233 4.558-.695a20.64 20.64 0 0 0 4.563-1.963v-11.66zm34.541-21.261h8.091v18.062h21.081v-18.062h8.092v42.278h-8.092v-17.154h-21.081v17.154h-8.091v-42.278zM453.575 379.888c-1.613 1.449-3.465 2.584-5.561 3.412-2.09.822-4.144 1.236-6.16 1.236-2.653 0-5.131-.775-7.428-2.324-2.292-1.549-4.245-3.735-5.858-6.553-4.186 0-7.991-.966-11.413-2.902-3.422-1.931-6.123-4.558-8.091-7.879-1.974-3.321-2.961-6.993-2.961-11.021 0-4.027.987-7.693 2.961-10.994 1.968-3.3 4.68-5.895 8.123-7.789 3.438-1.894 7.253-2.838 11.445-2.838 4.186 0 8.001.944 11.445 2.838 3.438 1.894 6.149 4.489 8.123 7.789 1.969 3.301 2.955 6.967 2.955 10.994 0 3.141-.616 6.091-1.841 8.845a21.204 21.204 0 0 1-5.163 7.158c-2.218 2.016-4.77 3.523-7.673 4.531 2.133 2.255 4.25 3.38 6.341 3.38 2.175 0 4.712-1.125 7.614-3.38l3.142 5.497zm-37.237-18.725c1.311 2.213 3.062 3.969 5.253 5.253a13.903 13.903 0 0 0 7.158 1.937c2.536 0 4.892-.647 7.068-1.937 2.175-1.284 3.895-3.04 5.163-5.253 1.268-2.213 1.905-4.648 1.905-7.307 0-2.658-.637-5.083-1.905-7.279-1.268-2.191-2.987-3.926-5.163-5.195-2.176-1.268-4.532-1.9-7.068-1.9-2.573 0-4.972.631-7.184 1.9a14.095 14.095 0 0 0-5.253 5.195c-1.289 2.197-1.937 4.621-1.937 7.279 0 2.659.657 5.094 1.963 7.307zm70.633 4.351c1.894 1.889 4.43 2.839 7.609 2.839 3.184 0 5.688-.95 7.524-2.839 1.831-1.894 2.743-4.51 2.743-7.853v-24.885h8.097v24.885c0 3.661-.748 6.855-2.234 9.572-1.491 2.717-3.618 4.802-6.372 6.25-2.759 1.449-6.012 2.175-9.758 2.175-3.783 0-7.073-.727-9.874-2.175-2.796-1.449-4.94-3.534-6.431-6.25-1.491-2.717-2.234-5.911-2.234-9.572v-24.885h8.092v24.885c-.001 3.343.943 5.958 2.838 7.853zm83.706 9.54l-3.746-8.941H546.28l-3.746 8.941h-8.394l18.539-42.278h8.394l18.3 42.278h-8.696zm-21.499-15.886h14.857l-7.37-17.754-7.487 17.754zm53.452-26.392h8.092v34.971h18.242v7.306H602.63v-42.277zm50.789 0h8.092v42.278h-8.092v-42.278zm31.889 0h34.489v7.19h-13.169v35.088h-8.155v-35.088h-13.164v-7.19zm92.344 0l-15.398 28.445v13.833h-8.097v-13.53l-15.759-28.748h8.214l11.535 19.871 11.355-19.871h8.15z" fill="#757575"/><path fill="#898989" d="M68.79 635.587h13.679v8.895H59.894V555.52H82.47v8.894H68.79v30.25h7.785v8.894H68.79v32.029zm47.039-66.058c0-3.41-1.261-5.115-3.78-5.115-2.522 0-3.782 1.705-3.782 5.115v12.124c0 3.853 2.742 9.412 8.229 16.68 5.487 7.268 8.229 13.529 8.229 18.791v7.785c0 13.048-4.225 19.572-12.676 19.572s-12.678-6.524-12.678-19.572v-11.01h8.896v16.569c0 3.414 1.259 5.119 3.782 5.119 2.518 0 3.78-1.705 3.78-5.119v-10.23c0-5.485-2.742-11.75-8.229-18.791-5.487-7.042-8.229-13.94-8.229-20.685v-5.67c0-13.048 4.227-19.572 12.678-19.572s12.676 6.524 12.676 19.572v8.118h-8.896v-13.681zm23.908-14.01h26.69v8.894h-8.896v80.067h-8.897v-80.067h-8.896v-8.894zm68.389 69.39c0 13.048-4.447 19.572-13.344 19.572h-13.346v-88.962h13.346c8.896 0 13.344 6.524 13.344 19.572v49.818zm-8.896-55.38c0-3.41-1.483-5.115-4.447-5.115h-4.449v71.173h4.449c2.964 0 4.447-1.705 4.447-5.119v-60.939zM59.511 661.974h147.944v8.752H59.511zm0-132.7h147.944v8.752H59.511zm931.779 35.14c3.262 0 4.893-2.259 4.893-6.783v-2.112h8.897v88.962h-8.897v-71.173h-4.893v-8.894zm32.024 52.377h8.897v13.677c0 3.414 1.483 5.119 4.449 5.119 2.964 0 4.447-1.705 4.447-5.119v-21.684c-1.335 1.113-2.818 1.668-4.447 1.668-8.896 0-13.346-6.524-13.346-19.572v-15.788c0-13.048 4.449-19.572 13.346-19.572s13.344 6.524 13.344 19.572v49.818c0 13.048-4.448 19.572-13.344 19.572s-13.346-6.524-13.346-19.572v-8.119zm8.897-20.459c0 3.484 1.483 5.226 4.449 5.226 2.89 0 4.373-1.594 4.447-4.782V569.53c0-3.41-1.483-5.115-4.447-5.115-2.966 0-4.449 1.705-4.449 5.115v26.802zm62.715-12.346c0 8.007-1.816 13.048-5.448 15.123 3.632 2.079 5.448 7.12 5.448 15.127v10.673c0 13.048-4.445 19.572-13.344 19.572-8.894 0-13.344-6.524-13.344-19.572v-10.673c0-8.007 1.816-13.048 5.45-15.127-3.634-2.075-5.45-7.116-5.45-15.123v-8.895c0-13.048 4.449-19.572 13.344-19.572 8.899 0 13.344 6.524 13.344 19.572v8.895zm-8.894-14.457c0-3.41-1.483-5.115-4.449-5.115-2.966 0-4.447 1.705-4.447 5.115v20.016c0 3.266 1.518 4.971 4.558 5.119 2.892 0 4.338-1.705 4.338-5.119v-20.016zm0 39.144c0-3.262-1.446-4.967-4.338-5.115-3.04 0-4.558 1.705-4.558 5.115v21.795c0 3.414 1.481 5.119 4.447 5.119s4.449-1.705 4.449-5.119v-21.795zm27.131 18.907c0-7.712 2.892-15.94 8.677-24.687 6.002-8.825 9.042-16.98 9.116-24.465v-8.899c0-3.41-1.5-5.115-4.503-5.115s-4.503 1.705-4.503 5.115v13.681h-8.787v-8.118c0-13.048 4.449-19.572 13.348-19.572 8.895 0 13.344 6.524 13.344 19.572v4.893c0 8.003-2.95 16.384-8.841 25.131-5.895 8.747-8.878 16.643-8.952 23.684v6.787h17.793v8.895h-26.692V627.58zm-120.618 34.394h147.944v8.752H992.545zm0-132.7h147.944v8.752H992.545z"/><path d="M304.382 571.703H333.4V444.021h29.018v290.188H333.4V600.722h-29.018v133.487h-29.018V444.021h29.018v127.682zm81.245 162.506V444.021h29.023v290.188h-29.023zm81.255 0h-29.024V444.021h44.623c32.154 0 48.242 22.253 48.242 66.744v11.609c0 44.496-15.96 66.744-47.881 66.744h-15.96v145.091zm15.961-174.11c12.57 0 18.857-6.532 18.857-19.59v-47.881c0-13.058-6.41-19.584-19.218-19.584h-15.599v87.055h15.96zm120.424-70.373c0-11.121-4.117-16.682-12.331-16.682-8.224 0-12.337 5.561-12.337 16.682v39.54c0 12.575 8.946 30.711 26.843 54.407 17.892 23.702 26.843 44.135 26.843 61.305v25.389c0 42.564-13.785 63.841-41.349 63.841-27.57 0-41.355-21.277-41.355-63.841v-35.911h29.018v54.047c0 11.127 4.112 16.687 12.337 16.687 8.213 0 12.331-5.561 12.331-16.687v-33.369c0-17.892-8.951-38.325-26.843-61.305-17.897-22.969-26.843-45.456-26.843-67.465v-18.502c0-42.559 13.785-63.841 41.355-63.841 27.564 0 41.349 21.282 41.349 63.841v26.482h-29.018v-44.618zm41.715-45.705h87.05v29.024h-29.013v261.164h-29.024V473.044h-29.013v-29.023zm128.76 261.17h44.618v29.018h-73.636V444.021h73.636v29.024h-44.618v98.659h25.389v29.018h-25.389v104.469zm92.494 29.018h-29.018V444.021h44.618c32.159 0 48.242 20.317 48.242 60.939v31.921c0 26.843-7.497 45.95-22.492 57.315l21.765 140.014h-29.379L881.47 600.723h-15.233v133.486zm15.96-162.506c12.57 0 18.863-6.527 18.863-19.585v-59.49c0-13.058-6.41-19.584-19.223-19.584h-15.599v98.659h15.959z" fill="#1E120D"/><g fill="#AAA"><path d="M823.031 840.892c-.414-.169-.824-.338-1.238-.382-1.102-.117-2.064.399-2.615 1.335-6.893 13.913-16.576 24.918-32.499 29.282.838-2.25 1.256-3.372 2.093-5.609a2632.404 2632.404 0 0 1 11.121-28.492c4.437-10.67 8.166-18.876 10.374-23.717.69-1.787-1.231-3.821-2.882-4.06-1.1-.159-2.199.44-2.615 1.396-9.257 21.135-8.442 19.227-10.249 24.067-5.556 14.247-14.45 27.599-21.782 27.224-7.883-.404-9.111-5.265-9.096-9.135.019-4.81 2.392-8.913 8.529-24.371a2693.923 2693.923 0 0 1 7.663-19.215c.696-1.622-.399-3.723-2.745-4.012-1.104-.135-2.211.389-2.627 1.391a2696.553 2696.553 0 0 0-7.812 19.344c-1.883 4.531-3.496 8.343-4.833 11.686-8.196 16.286-13.164 23.159-19.544 22.891-2.907-.123-4.146-1.955-4.129-5.928.045-10.558 10.921-27.707 10.972-39.782.03-7.19-2.986-13.099-12.958-14.036-4.57-.429-8.878 1.802-12.915 5.649l1.122-2.687c.7-1.748-.676-3.946-2.758-4.121-1.245-.104-2.358.501-2.781 1.725-3.068 8.121-7.205 19.545-11.527 31.553-.081.122-.206.181-.275.316l-.14.416c-4.622 10.179-11.337 25.239-19.94 25.017-2.912-.075-4.154-1.815-4.14-6.094.021-6.28 4.644-18.565 9.696-32.65a4572.182 4572.182 0 0 1 7.015-18.57c.701-1.654-.402-3.987-2.622-4.136-1.25-.083-2.365.552-2.787 1.661-.701 1.799-1.542 3.875-2.383 6.238-2.481-5.259-6.781-7.949-12.619-8.267-12.364-.672-23.313 17.513-28.178 34.695-2.332 7.96-8.639 16.977-15.889 16.886-2.5-.031-4.861-1.073-6.527-2.982 5.012-7.802 10.741-23.954 10.76-33.968.017-9-2.891-16.645-11.665-16.814-5.152-.1-9.612 2.752-13.512 6.938l1.113-3.045c.701-1.888-.693-4.089-2.781-4.108-1.254-.011-2.369.71-2.786 2.016l-.839 2.329c-1.357 3.661-6.941 19.815-13.227 37.949-6.233 14.124-11.249 20.823-17.237 20.86-2.915.018-4.166-1.864-4.171-6.081-.015-12.521 10.676-29.37 10.667-43.359-.005-7.723-3.075-13.7-13.102-13.51-6.544.123-13.632 6.997-17.655 13.773-.016-7.685-4.482-13.212-12.831-12.88-4.729.188-9.172 3.704-13.191 8.763.414-1.454.874-2.642 1.381-3.938.721-1.842-.707-3.99-2.795-3.886-1.252.062-2.36.835-2.774 2.144a6914.61 6914.61 0 0 1-11.339 33.548c-.021.051-.077.074-.096.127-4.815 12.012-9.651 17.537-15.476 17.747-3.19.115-5.552-.779-7.085-2.68 6.334-11.214 10.722-25.315 10.687-34.222-.033-8.489-4.949-14.685-13.939-14.128-6.829.423-13.691 6.066-19.487 16.123-2.735 4.745-6.456 11.728-8.945 20.021-8.906 22.341-20.351 35.291-39.441 36.096-13.559.571-21.587-6.161-21.616-19.776-.016-7.383 2.587-16.002 5.732-25.848 2.344-.004 3.997-.052 6.068-.273 23.442-2.505 50.525-17.961 50.425-40.98-.047-10.821-5.926-18.214-17.232-16.816-19.588 2.423-35.332 31.128-42.996 52.485-11.435-.906-19.401-5.944-19.408-16.97-.004-6.817 3.552-16.14 8.479-22.107.548-.605.683-1.26.682-1.893-.002-1.63-1.373-2.365-2.881-2.063-.821.164-1.641.58-2.188 1.314-6.017 7.948-9.848 17.614-9.848 25.962 0 12.516 9.054 19.671 23.11 21.103-3.285 9.922-5.752 18.841-5.739 26.541.027 15.641 9.439 25.453 27.43 24.82 16.247-.573 27.842-8.908 36.794-23.454.235 7.504 3.366 12.881 12.068 12.586 6.652-.225 13.696-6.137 18.797-13.334 3.062 2.404 6.672 3.547 10.556 3.422 3.04-.098 5.833-1.075 8.453-2.962-.909 2.668-1.828 5.366-2.732 8.026-.549 1.568.337 3.332 1.818 3.777 1.435.43 3.189-.359 3.737-2.081a10677.222 10677.222 0 0 0 9.35-27.808c.082-.196.167-.357.249-.556.011-.025.001-.05.011-.076 1.652-3.782 9.005-17.997 11.327-21.705 4.015-6.053 8.174-10.842 12.068-10.989 5.008-.188 6.963 2.506 6.975 7.855.012 5.068-2.059 11.639-4.956 20.524-.137.292-9.227 28.762-9.366 29.197-.688 1.885.708 4.017 2.788 3.982 1.249-.021 2.356-.758 2.769-2.066-.138.289 9.098-28.206 9.373-29.082 4.003-11.81 14.82-31.109 22.895-31.253 5.569-.099 7.245 3.238 7.248 7.465.012 11.944-10.814 30.118-10.795 43.353.01 7.126 3.351 12.182 10.152 12.146 3.428-.018 6.481-1.445 9.23-3.711-4.083 12.01-12.373 34.293-17.255 48.677-.691 1.894.697 4.076 2.775 4.074 1.248-.001 2.356-.73 2.772-2.044 1.382-4.371 12.362-34.5 18.608-52.738 1.527 3.939 4.773 5.883 9.997 6.128 7.96.373 15.133-5.498 20.838-13.456 2.083 2.201 5.551 3.833 9.577 3.878 4.835.054 9.528-2.575 13.375-6.549-.001.114-.016.241-.016.354-.019 8.689 3.575 15.675 11.346 15.795 5.969.091 11.807-3.845 17.386-11.715-.023 7.013 3.29 12.083 9.946 12.232 3.97.089 7.438-1.591 10.498-4.283l-.203.565c-.559 1.681.307 3.347 1.789 3.864 1.433.5 3.19-.198 3.752-1.873a4810.576 4810.576 0 0 1 9.516-26.604l.007-.016.023-.067.274-.761c4.487-11.679 15.107-29.66 23.554-28.91 5.402.48 7.188 3.795 7.171 7.755-.051 11.873-10.922 27.079-10.978 40.034-.029 6.755 3.275 11.686 9.922 11.929 5.928.218 10.72-2.843 15.819-9.957 1.109 5.49 5.126 10.771 14.65 11.194 3.874.172 7.339-1.25 10.528-3.955a2950.171 2950.171 0 0 0-3.487 9.255c-3.739.766-7.478 1.289-10.942 1.701-16.62 2.335-23.44 8.491-23.476 17.072-.034 8.033 5.357 13.206 13.662 13.207 15.613.002 25.305-27.235 25.305-27.235s31.145-9.178 40.235-33.045c.14-.355.277-.709.277-1.079.003-.986-.685-1.916-1.786-2.523zm-380.883-67.699c7.601-1.063 11.36 4.06 11.393 11.826.083 19.349-24.64 32.593-45.041 34.928-1.241.142-2.481.285-3.584.284 6.433-17.741 20.933-44.76 37.232-47.038zm25.455 86.873c-4.438-.003-6.109-3.187-6.13-8.127-.061-14.134 7.306-27.978 10.8-34.171 4.021-7.128 8.959-12.5 14.233-12.885 4.716-.343 8.241 2.528 8.221 8.443-.082 24.18-19.243 46.747-27.124 46.74zm137.008-2.112c-3.862-.001-5.279-2.481-5.279-7.584 0-4.818.974-6.709 3.059-12.835 5.563-14.726 14.069-36.996 25.485-36.787 4.177.077 6.356 4.235 5.414 10.285-4.487 28.828-20.101 46.922-28.679 46.921zm54.858.088c-4.166-.074-5.462-4.332-5.386-10.636.172-14.177 12.385-45.088 25.003-44.584 4.943.198 8.6 4.313 8.856 10.874a5101.478 5101.478 0 0 0-3.368 8.957c-5.604 14.293-13.861 35.587-25.105 35.389zm99.557 41.088c-4.683.08-8.089-3.081-7.867-7.627.291-5.989 6.001-9.649 18.744-11.404 2.494-.321 4.987-.778 7.618-1.217-4.612 13.124-11.063 20.12-18.495 20.248z"/><path d="M520.215 935.497c-32.722 0-59.313-6.418-73.912-14.542-9.487-5.281-14.329-11.272-13.999-17.329.208-3.789 2.643-9.233 13.076-13.631 32.145-13.552 64.068-8.063 104.484-1.126 25.738 4.425 55.679 9.565 92.238 10.827a272.538 272.538 0 0 0 30.557-18.495 2.906 2.906 0 0 1 4.054.721 2.914 2.914 0 0 1-.721 4.053 278.973 278.973 0 0 1-22.185 13.98c43.962.405 97.384-4.977 163.763-23.5 1.537-.439 3.153.473 3.586 2.021a2.912 2.912 0 0 1-2.021 3.586C746.8 902.241 689.8 907.037 643.358 905.573c-43.246 22.07-86.947 29.924-123.143 29.924zm-30.805-47.991c-14.492 0-28.187 2.123-41.767 7.848-5.979 2.522-9.363 5.574-9.526 8.591-.197 3.57 3.82 7.916 11.015 11.925 28.59 15.905 104.909 24.88 182.066-10.832-32.08-1.796-58.913-6.413-82.321-10.432-21.942-3.772-41.327-7.1-59.467-7.1z"/></g><path d="M1034.339 495.165L599.998 60.824l-434.34 434.341-5.412-5.412L599.998 50l439.753 439.753zM599.998 1150L160.246 710.247l5.412-5.412 434.34 434.341 434.341-434.341 5.412 5.412z" fill="#1E120D"/></svg>