<svg xmlns="http://www.w3.org/2000/svg" viewBox="0 0 1200 1200"><path d="M305.349 402.992c7.999-19.558 16.75-38.114 24.006-54.376 1.03-1.724 1.271-3.565 1.921-5.199 1.466-5.989-16.562-11.159-18.618-9.543-62.572 49.171-89.651 126.385-120.034 191.219-7.664 16.354-15.502 34.161-23.834 52.983-2.242 5.073-.938 2.465-1.123.13 17.713-65.633 37.796-130.392 59.859-194.999.913-2.985 1.413-6.597 1.92-9.588.151-.895-.162-2.043-1.377-2.855-3.781-4.19-15.535-7.803-19.776-3.452-1.74 1.786-3.14 3.749-4.533 5.418-46.302 80.941-86.674 162.992-122.522 247.819 3.31-14.256 7.218-30.294 12.195-47.329 1.75-5.99 2.632-8.989 4.395-14.967 7.901-26.788 17.29-54.683 26.291-78.322l-.023-.29c12.729-33.329 24.697-58.444 30.929-60.831 1.83-.701 2.815-2.581 2.769-3.163-.116-1.462-2.499-2.962-5.96-3.734-5.041-1.67-12.628-2.295-16.638-.691-4.011 1.605-13.795 19.557-24.852 46.142-9.605 23.094-21.745 53.624-30.503 84.837C66.047 591.365 57.017 640.432 50 691.398c.463 5.839 14.833 1.757 21.587-1.482l2.488-1.19c1.776-.847 2.77-2.281 3.374-4.025 30.238-87.258 69.04-172.138 112.478-255.903-.328.714-.281 1.299-.235 1.88l-.368.13c-21.039 54.829-41.977 111.423-42.524 169.45-.085 9.061 18.22 9.766 27.26 6.188 2.146-.85 4.156-2.22 4.979-3.982 30.208-64.68 64.172-128.517 99.483-191.721-32.22 73.218-66.411 149.312-67.021 227.724-.113 14.525 15.487 17.942 33.405 12.183.597-.193.895-.288 1.492-.479.372-.119.726-.534 1.074-.944-.023-.291-.055-.58-.819-.637-10.296-.773-7.578-28.088-3.163-49.574 13.657-66.463 35.68-132.016 61.859-196.024zm672.484 86.445c2.886-5.793 6.851-13.456 9.737-19.547 2.88-.197 3.243-1.361 2.163-3.421-3.243-5.188-15.866-14.9-22.012-15.842-2.171-.464-3.611 2.25-12.673 21.323.361 6.679 17.009 16.296 22.785 17.487z"/><path d="M1137.868 639.756c-10.629 18.323-30.358 45.186-38.833 33.317-9.192-12.874 10.19-70.848 18.592-91.664 1.747-3.338-.351-9.039-4.552-13.184-5.956-6.37-13.689-13.892-15.096-14.6-14.068-7.074-61.64 39.489-69.5 47.264 6.075-19.677 14.281-40 22.457-57.601 1.425.32 2.847-.67 1.425-3.281-2.488-3.752-8.537-9.75-13.889-13.734-12.124-9.582-18.576-10.928-20.369-8.401 3.224-1.597-24.083 51.522-25.493 53.895-16.297 27.425-27.053 44.773-36.474 41.433-4.35-1.543-6.524-5.569-6.524-14.74 0-8.188 1.812-18.044 4.348-28.614 5.074-21.146 14.125-43.755 20.622-58.042 1.808.674 3.611-.61 1.808-3.253-4.334-7.852-30.773-25.816-34.766-19.639 3.266-1.829-24.302 53.106-25.83 55.734-.005.009-.018.007-.021.014-7.656 14.63-27.767 46.64-36.93 44.087-16.129-4.492.752-61.488 16.112-94.648 1.826.537 2.559-.879 2.559-1.862 0-3.277-14.639-15.074-21.602-15.685-2.572-.378-2.938 1.487-3.669 2.602-7.338-10.191-20.933-17.998-31.983-20.667-37.216-8.99-61.515 18.244-70.094 49.383-.043.072-.099.122-.139.199-15.45 29.311-30.814 50.705-37.874 49.714-4.465-.626-6.698-4.195-6.698-13.04 0-13.431 4.836-32.771 10.786-51.245v-.326c4.463-13.446 10.034-27.026 15.606-40.557.369-1.25 1.109-2.116 1.485-3.365 2.598-6.136 5.573-12.533 8.163-18.321 4.085-9.135 8.164-17.61 12.239-25.725 4.077-8.116 8.156-15.554 11.86-22.713 23.327 4.755 67.188 16.134 78.572 27.664l.731.193c1.473.391 1.473.066 1.473-.918 0-15.398-34.144-30.573-73.746-39.668 5.555-10.699 16.273-24.852 19.599-24.138 1.844.397 2.953-1.327 2.953-1.979 0-3.934-13.297-15.613-20.33-17.01-5.179-1.029-19.995 18.444-30.01 37.701-44.888-6.671-87.791-5.508-87.791-2.559 0 .326 0 .657.371 1.017 8.576 8.958 10.064 11.095 14.538 11.557 0 0 25.005-2.152 65.46 3.485-9.651 18.408-19.684 39.835-28.979 62.805 0 .331-.376.28-.376.28-2.226 5.266-4.799 12.507-7.809 20.913-4.114 11.483-8.548 25.178-11.735 38.594-11.216 23.245-32.269 57.462-41.172 49.223-9.707-8.987 10.812-75.117 19.761-99.459 1.86-4.072-.376-8.892-4.846-11.275-6.336-3.874-14.544-8.159-16.034-8.277-14.919-1.186-64.942 65.202-73.153 76.242 6.347-22.201 14.935-45.936 23.517-66.94 1.498-.275 2.99-1.856 1.498-3.877-2.613-2.715-8.96-6.195-14.563-7.956-12.694-4.542-19.412-3.211-21.281.061 3.356-2.932-24.909 61.246-26.491 64.431-.005.011-.018.015-.023.025-16.696 33.302-29.478 56.037-37.677 56.495-4.477.25-6.338-2.904-6.337-12.075 0-24.569 16.026-71.679 26.099-96.961 1.869-.07 2.611-1.731 2.611-2.714 0-.326-.371-.97-.742-1.284-2.988-3.495-13.802-7.949-19.769-7.627-.748.041-1.119.061-1.49.408-2.609.477-2.981 2.462-3.357 3.142-7.456 18.786-14.237 44.406-30.176 76.883-11.56 23.553-25.673 45.018-39.416 46.704-4.459.547-6.687-2.435-6.687-11.605 0-24.569 15.6-72.712 26.011-98.703 1.862-.195 2.603-1.906 2.602-2.889 0-.326-.74-.908-1.116-1.194-2.227-2.394-8.178-5.04-14.124-5.983-12.633-2.786-19.307-.528-21.164 3.002 3.338-3.398-24.787 64.82-26.308 68.103-.002.005-.008.008-.011.014-13.697 28.742-24.791 42.136-42.118 45.61 23.962-44.769 20.909-108.251-26.501-97.549-33.08 7.467-45.443 59.411-46.176 59.935-35.434 49.876-13.595 90.585 23.052 81.499 16.124-3.999 30.099-15.276 40.782-29.627 29.238-6.106 49.376-24.389 62.73-55.978.026-.056.067-.1.091-.158.11-.261.24-.587.369-.908.119-.285.247-.553.364-.842.01-.025-.01-.048-.001-.072 2.994-7.627 15.585-43.744 15.585-43.744s-22.832 80.28-11.127 93.939c3.714 4.334 15.206 11.306 23.373 12.267 1.115.189 2.606.008 3.715-.124 11.513-1.369 27.511-20.706 40.17-40.751v.326c0 9.176 1.852 15.961 5.218 20.221 3.649 4.617 15.348 12.418 23.473 13.826 1.471.255 2.61.182 3.729.123 14.937-.786 30.257-27.932 46.279-66.317l.006-.01c2.475-5.55 15.677-41.334 15.677-41.334s-20.159 62.014-25.383 96.513c0 8.519 25.208 11.449 25.383 8.98.217-3.063-.076-5.029 8.216-18.612 17.734-29.046 58.975-87.218 67.933-91.146-7.089 19.789-25.342 78.668-12.313 96.79 3.378 4.698 12.314 11.627 18.654 14.748 13.311 7.793 27.018-6.748 38.079-24.568.461 6.155 1.802 11.363 4.411 15.004 1.859 2.839 5.958 6.933 10.421 10.453 4.467 3.521 8.927 6.414 13.016 7.968 1.116.482 2.608 1.019 3.718 1.178 7.033 1.006 18.993-8.342 31.977-29.712 2.804 20.448 13.525 37.342 33.294 41.377 17.381 3.549 39.499-16.145 49.432-26.43 0 6.884.866 16.272 5.148 22.928 3.704 5.759 15.064 17.363 23.132 21.575 1.1.632 2.565 1.042 3.664 1.352 15.387 4.336 37.282-32.099 46.016-52.503.017-.038-.018-.093-.004-.132 3.196-7.075 17.461-41.515 17.461-41.515s-12.138 33.043-15.261 50.885c-3.017 17.237-3.637 33.514 2.545 43.099 3.638 6.448 17.806 21.744 26.495 24.853 15.567 5.571 32.152-19.842 45.438-49.196.039-.084.04-.176.069-.262 2.817-5.933 14.275-33.477 14.275-33.477s-19.37 53.983-24.407 86.396c0 8.518 24.239 21.447 24.407 19.09.214-3.024.013-5.16 7.873-15.343 16.938-21.939 56.136-63.833 64.595-64.222-6.695 16.988-24.056 68.497-11.642 91.917 3.206 6.048 11.646 16.494 17.626 22.117 20.749 21.564 42.445-17.459 52.052-36.544 2.432-4.842-9.843-13.888-11.819-10.479zm-830.067-58.034c-22.338 5.651-19.387-28.021-13.173-39.501 6.948 13.221 20.851 20.756 36.647 23.345-6.616 8.076-14.321 13.841-23.474 16.156zm31.928-29.533c-32.728-6.159-45.172-37.667-12.126-45.393 2.204-.516 3.672-.527 3.672-.527 1.834-.748 2.206-2.468 2.206-3.125-.148-.49-.222-.734-.372-1.223-3.302-2.848-13.213-3.136-18.349-2.854v-.326c-.365-3.188 12.828-32.027 28.647-35.486 14.709-3.22 15.073 52.332-3.678 88.934zm460.296 17.577c-6.288-1.279-9.249-10.355-9.249-22.808 0-32.103 19.671-85.345 54.638-76.727 8.096 1.994 15.427 11.137 15.815 19.088 1.404 28.823-38.271 85.114-61.204 80.447z"/><path fill="#AAA" d="M396.536 255.735c-1.37 6.198-4.853 11.13-10.439 14.796-5.586 3.661-11.496 4.885-17.73 3.666-6.224-1.219-11.161-4.597-14.791-10.131-3.63-5.539-4.759-11.407-3.389-17.605 1.371-6.198 4.843-11.13 10.439-14.796 5.586-3.661 11.496-4.885 17.73-3.666 6.224 1.219 11.151 4.597 14.78 10.131 3.631 5.539 4.76 11.407 3.4 17.605zm-20.073-20.466c-4.299-.973-8.305-.241-12.04 2.202-3.724 2.443-5.994 5.832-6.82 10.162-.826 4.331 0 8.389 2.479 12.165 2.479 3.781 5.868 6.161 10.168 7.129 4.299.978 8.316.241 12.04-2.202 3.724-2.443 6.004-5.832 6.831-10.162.816-4.33-.011-8.389-2.479-12.165-2.48-3.782-5.869-6.156-10.179-7.129zm80.649-34.687c2.803 6.862 1.58 12.406-3.682 16.637l17.061 10.664-8.922 3.645-15.649-9.921-9.226 3.771 5.722 13.98-7.029 2.866-16.988-41.585 15.471-6.318c6.339-2.594 11.318-3.379 14.938-2.359 3.608 1.026 6.38 3.897 8.304 8.62zm-6.935 9.708c.931-1.815.837-4.079-.272-6.799-1.109-2.714-2.605-4.278-4.488-4.691-1.883-.413-4.707.151-8.473 1.694l-8.922 3.645 6.077 14.869 8.745-3.572c3.965-1.621 6.413-3.337 7.333-5.146zm41.475-34.99l7.364-1.789 10.586 43.661-7.374 1.784-10.576-43.656zm82.919 10.471l7.552-.654 1.328 15.303c-3.828 5.021-9.665 7.866-17.521 8.546-6.621.57-12.343-1.129-17.176-5.094-4.843-3.97-7.552-9.284-8.128-15.941-.575-6.663 1.224-12.406 5.387-17.239 4.163-4.832 9.467-7.526 15.91-8.086 6.443-.554 11.966.863 16.559 4.247l-3.536 6.114c-1.883-1.344-3.734-2.228-5.555-2.652-1.82-.424-3.902-.533-6.255-.329-4.519.392-8.191 2.181-11.015 5.371-2.824 3.19-4.027 7.165-3.609 11.925.408 4.759 2.228 8.447 5.471 11.072 3.232 2.625 6.977 3.75 11.224 3.384 4.247-.366 7.72-1.59 10.418-3.672l-1.054-12.295zm46.423-22.856l7.573.481-2.845 44.833-7.563-.481 2.835-44.833zm83.704 12.709l7.406 1.663-9.854 43.834-8.023-1.805-17.647-37.558-7.186 31.977-7.395-1.663 9.843-43.829 7.406 1.663 18.096 38.452 7.354-32.734zm41.757 50.304l-8.232 7.537-7.417-3.264 36.235-33.128 7.406 3.269v49.09l-7.406-3.269v-11.161l-20.586-9.074zm20.586 1.417v-20.23l-14.937 13.651 14.937 6.579zm33.4 37.464l24.854-37.422 6.318 4.2-20.879 31.423 17.082 11.344-3.985 5.994-23.39-15.539z"/><path fill="#757575" d="M404.805 630.494v4.571h-15.366v7.62h13.802v4.325h-13.802v7.704h15.863v4.571H384.58v-28.792h20.225zm23.667 3.787c-1.417 0-2.573.287-3.483.868-.905.575-1.36 1.449-1.36 2.615 0 1.167.455 2.061 1.36 2.678.91.617 2.835 1.282 5.79 1.998 2.95.711 5.178 1.716 6.674 3.007 1.496 1.287 2.244 3.19 2.244 5.701 0 2.516-.946 4.555-2.84 6.12-1.899 1.564-4.383 2.348-7.458 2.348-4.503 0-8.499-1.553-11.987-4.655l3.049-3.666c2.908 2.526 5.931 3.792 9.064 3.792 1.564 0 2.803-.34 3.724-1.009.92-.674 1.381-1.569 1.381-2.678 0-1.114-.429-1.977-1.297-2.594-.863-.622-2.354-1.182-4.466-1.689-2.118-.507-3.724-.978-4.822-1.402a11.049 11.049 0 0 1-2.924-1.668c-1.705-1.292-2.552-3.269-2.552-5.931 0-2.667.968-4.718 2.903-6.161 1.935-1.438 4.331-2.16 7.186-2.16 1.841 0 3.666.304 5.481.905 1.81.607 3.379 1.454 4.697 2.552l-2.6 3.666c-.847-.769-2.003-1.402-3.457-1.893-1.462-.499-2.895-.744-4.307-.744zm36.35.658v24.347h-4.859v-24.347h-8.734v-4.446h22.327v4.446h-8.734zm44.038-.679c2.777 2.515 4.163 6.009 4.163 10.486s-1.344 8.018-4.038 10.628c-2.694 2.61-6.81 3.912-12.359 3.912h-9.556v-28.792h9.885c5.163 0 9.133 1.255 11.905 3.766zm-.738 10.606c0-6.59-3.776-9.885-11.328-9.885h-4.864v19.733h5.398c3.488 0 6.161-.832 8.013-2.495 1.85-1.657 2.781-4.11 2.781-7.353zm182.182-14.372h10.46v28.792h-4.613v-24.467h-5.847v-4.325zm33.693 24.754c2.552 0 4.435-.863 5.649-2.594 1.203-1.731 1.82-4.064 1.852-7.003-.691.769-1.674 1.49-2.971 2.16-1.287.675-2.709 1.01-4.278 1.01-2.584 0-4.749-.858-6.485-2.573-1.747-1.715-2.615-3.996-2.615-6.836 0-2.845.931-5.131 2.814-6.862 1.883-1.726 4.257-2.594 7.113-2.594 4.613 0 7.793 2.061 9.55 6.182.994 2.359 1.486 5.026 1.486 7.992s-.314 5.434-.952 7.411c-.628 1.977-1.496 3.546-2.594 4.697-2.134 2.254-4.77 3.379-7.887 3.379s-5.941-.973-8.462-2.924l2.427-3.583c.638.549 1.475 1.041 2.542 1.48 1.054.439 1.995.658 2.811.658zm.889-10.711c1.663 0 3.044-.46 4.163-1.381 1.109-.915 1.663-2.113 1.663-3.583 0-1.47-.534-2.73-1.601-3.787-1.077-1.056-2.416-1.59-4.017-1.59-1.611 0-2.939.476-3.975 1.422-1.046.947-1.569 2.165-1.569 3.646 0 1.485.47 2.735 1.422 3.75.943 1.016 2.251 1.523 3.914 1.523zm28.065-12.438c1.841-1.454 4.153-2.186 6.924-2.186 2.772 0 5.084.732 6.925 2.186 1.841 1.454 2.751 3.29 2.751 5.497 0 2.212-1.025 4.169-3.086 5.874 2.772 1.757 4.163 4.226 4.163 7.411 0 2.474-.994 4.545-2.971 6.224-1.977 1.674-4.571 2.51-7.783 2.51-3.211 0-5.805-.837-7.782-2.51-1.977-1.679-2.971-3.75-2.971-6.224 0-3.185 1.391-5.654 4.163-7.411-2.061-1.705-3.086-3.661-3.086-5.874.002-2.207.923-4.043 2.753-5.497zm2.888 22.098c1.266.811 2.615 1.219 4.037 1.219 1.433 0 2.772-.408 4.038-1.219 1.266-.811 1.893-1.967 1.893-3.478 0-1.511-.607-2.678-1.81-3.504-1.213-.821-2.584-1.234-4.121-1.234-1.538 0-2.908.413-4.121 1.234-1.203.826-1.81 1.993-1.81 3.504s.628 2.667 1.894 3.478zm.397-13.096c1.025.837 2.239 1.255 3.64 1.255 1.402 0 2.615-.418 3.651-1.255 1.025-.837 1.538-1.867 1.538-3.091s-.513-2.244-1.538-3.07c-1.035-.821-2.249-1.234-3.651-1.234-1.402 0-2.615.413-3.64 1.234-1.035.826-1.548 1.846-1.548 3.07s.512 2.254 1.548 3.091zm40.261.638c.826-1.124 1.234-2.265 1.234-3.421 0-1.151-.439-2.134-1.318-2.945-.879-.811-1.987-1.213-3.337-1.213-2.354 0-4.32 1.208-5.889 3.624l-3.912-2.27c1.266-1.893 2.657-3.321 4.184-4.284 1.527-.957 3.483-1.438 5.889-1.438s4.508.758 6.328 2.286c1.81 1.522 2.709 3.604 2.709 6.24 0 1.485-.376 2.897-1.15 4.242-.764 1.349-2.186 3.075-4.237 5.193l-6.757 6.878h13.054v4.655H783.61v-4.122l8.734-8.771c1.947-1.976 3.338-3.53 4.153-4.654z"/><path fill="#564C4F" d="M918.174 870.699c-6.688-15.859-13.247-38.134-26.6-38.134-13.359 0-26.528-1.663-38.313-16.688-11.789-15.023-4.949-32.547-18.926-42.561-13.977-10.016-25.102-23.375-39.075-33.39-13.972-10.016-23.367 0-29.248 8.351-5.877 8.344-40.29 56.574-40.29 56.574s-18.947-18.367-27.828-29.213c-8.881-10.847-14.13-32.547-25.687-41.732-11.567-9.18-27.273-42.565-36.414-50.906-9.145-8.342-1.174-36.722-17.791-53.409-16.62-16.696-22.496-8.352-31.314 4.166-8.821 12.521-13.291 23.374-20.402 27.541-7.113 4.176-22.12 20.029-32.211 36.723-10.091 16.696-37.518 47.572-37.518 47.572s-38.377-40.06-46.812-39.229c-8.437.834-22.854 35.05-47.344 61.76-24.489 26.71-62.714 65.099-84.102 70.105-6.404 13.35-19.397 25.867-55.047 47.569l-.22.132c81.446 92.868 200.891 151.579 334.12 151.579 129.041 0 245.182-55.054 326.363-142.894-2.181-10.478-3.379-19.262-5.341-23.916zm-453.302 18.434c-18.051 5.009-42.603 8.355-58.821-4.166-16.22-12.513-64.052-10.021-88.115-3.344 76.08-49.234 131.463-145.647 136.582-141.038 0 0 25.267 21.697 25.982 30.876.713 9.182-17.952 20.034-8.496 33.39 9.458 13.35 24.044 17.526 23.173 25.866-.871 8.345-12.979 28.377-4.098 39.23 8.88 10.846 10.998 22.53 10.998 22.53s-19.159-8.351-37.205-3.344zm170.155-110.991c-9.302 9.181-17.01-20.862-19.327-6.68-2.319 14.19 9.327 22.53 16.188 36.722 6.869 14.193.378 28.374-9.811 30.046-10.191 1.669-28.214-17.527-35.426-28.37-7.211-10.852-23.155-10.018-35.321-13.366-12.173-3.333-40.748-33.378-40.748-33.378 5.831-15.852 45.641-53.408 54.979-70.932 9.341-17.526 23.343-31.716 34.716-36.725 11.368-5.005 3.4 23.365 7.447 32.55 4.048 9.182.064 23.363 6.616 32.547 6.554 9.182 29.998 48.401 20.687 57.586zm118.454 72.604c-10.381-12.515-17.348-33.72-17.348-33.72s20.471-28.2 24.505-34.797c4.023-6.59 9.076.919 10.275 13.438 1.2 12.518-10.65 30.045 9.344 38.388 19.988 8.353 46.923 38.189 51.364 59.569-35.473-12.001-67.764-30.358-78.14-42.878z"/><path d="M251.482 722.406l10.774 21.831 24.091 3.5-17.433 16.993 4.116 23.994-21.548-11.328-21.548 11.328 4.115-23.994-17.432-16.993 24.091-3.5zm686.323 0l10.774 21.831 24.091 3.5-17.433 16.993 4.116 23.994-21.548-11.328-21.548 11.328 4.115-23.994-17.432-16.993 24.091-3.5z"/></svg>