<svg xmlns="http://www.w3.org/2000/svg" viewBox="0 0 1200 1200"><path fill="#564C4F" d="M708.675 322.459c-3.869-19.925-37.239-6.802-37.239-6.802.477 19.925-9.957 31.611-24.474 35.984-26.597 6.32-58.226 8.24-89.658 1.434-37.239-8.746-31.921-37.418-31.921-37.418s-8.705-1.461-19.824-4.853c-26.621-5.935-11.119 25.75-11.119 25.75S515.831 374.386 597.93 373c81.638-1.377 114.603-30.615 110.745-50.541z"/><path fill="#564C4F" d="M613.884 335.096c29.501-1.943 51.262-9.235 57.552-19.439 0 0-.489-8.264-1.938-39.848-2.421-35.469-36.756-45.679-76.894-44.707-40.136.975-57.063 17.013-61.898 35.96-4.841 18.948-5.324 48.594-5.324 48.594 10.637 17.983 59.002 21.384 88.502 19.44zm80.008 572.585c-14.686 20.535-49.15 38.084-65.789 39.363-16.644 1.276-16.055-13.688-16.055-13.688l-4.242-.046-2.673-116.127h37.509c1.683 2.749 4.578 4.682 8.04 4.682 5.293 0 9.587-4.292 9.587-9.59 0-5.299-4.294-9.591-9.587-9.591-2.849 0-5.339 1.306-7.097 3.277h-38.713l-.383-16.773c8.577-2.682 14.841-10.589 14.841-20.044 0-11.656-9.446-21.101-21.099-21.101-11.657 0-21.104 9.445-21.104 21.101 0 9.593 6.447 17.599 15.218 20.162l-.318 16.655h-36.681c-1.755-1.971-4.245-3.277-7.094-3.277-5.295 0-9.59 4.293-9.59 9.591 0 5.298 4.295 9.59 9.59 9.59 3.459 0 6.352-1.933 8.039-4.682h35.518l-2.231 116.208-2.694-.035s.588 14.964-16.058 13.688c-16.643-1.279-51.103-18.828-65.791-39.363-2.937-.642-2.742 5.778-.588 9.846 2.157 4.062 18.798 36.362 18.798 36.362s2.939-4.91.391-9.832c-2.543-4.931-3.519-11.775 3.333-4.931 6.851 6.85 48.753 31.88 56.973 34.236 8.224 2.347 10.189 8.337 11.164 10.264.715 1.419 2.9 2.245 4.016 2.591l.003.195s.209-.061.338-.096c.131.035.34.096.34.096l.007-.195c1.12-.346 3.299-1.172 4.013-2.591.976-1.927 2.94-7.917 11.163-10.264 8.222-2.356 50.123-27.386 56.974-34.236 6.853-6.844 5.878 0 3.335 4.931-2.547 4.922.388 9.832.388 9.832s16.643-32.3 18.799-36.362c2.155-4.068 2.35-10.488-.59-9.846zM583.419 769.144c0-8.179 6.63-14.806 14.811-14.806 8.178 0 14.806 6.627 14.806 14.806 0 8.181-6.628 14.806-14.806 14.806-8.181 0-14.811-6.625-14.811-14.806z"/><path d="M873.08 878.749a7.097 7.097 0 0 1-5.033-2.084L338.219 346.843a7.115 7.115 0 1 1 10.066-10.06l529.828 529.822a7.119 7.119 0 0 1 0 10.06 7.094 7.094 0 0 1-5.033 2.084z"/><path d="M307.131 345.201l6.477 6.477 15.978 3.625 27.16-27.159-3.625-15.978-6.478-6.478zm19.758 533.548a7.097 7.097 0 0 1-5.033-2.084 7.119 7.119 0 0 1 0-10.06l529.822-529.822a7.115 7.115 0 1 1 10.066 10.06L331.922 876.665a7.093 7.093 0 0 1-5.033 2.084z"/><path d="M853.321 305.688l-6.478 6.478-3.625 15.978 27.16 27.159 15.978-3.625 6.477-6.477zm-708.44-11.974l3.497-5.798 59.597 35.992-3.764 6.228-72.768 6.427 50.476 30.486-3.559 5.886-59.591-35.998 3.758-6.222 72.824-6.514-50.47-30.487zM255.944 176.48c6.247-1.307 12.369-1.02 18.366.852 5.998 1.879 11.13 5.232 15.392 10.06 4.268 4.828 6.981 10.359 8.15 16.593 1.163 6.234.722 12.381-1.319 18.441-2.047 6.06-5.562 11.286-10.533 15.678-4.977 4.399-10.602 7.236-16.867 8.518-6.265 1.282-12.419.964-18.46-.964-6.041-1.929-11.199-5.301-15.461-10.129-4.262-4.828-6.956-10.334-8.082-16.518-1.12-6.184-.647-12.294 1.419-18.329 2.065-6.035 5.587-11.249 10.564-15.647 4.979-4.399 10.591-7.249 16.831-8.555zm-21.141 25.788c-1.674 4.928-2.028 9.942-1.07 15.031.952 5.095 3.185 9.631 6.707 13.613 3.515 3.982 7.764 6.782 12.742 8.405 4.983 1.63 10.029 1.929 15.15.908 5.12-1.026 9.675-3.298 13.656-6.813 3.926-3.472 6.707-7.678 8.331-12.611 1.624-4.934 1.935-9.967.933-15.112-.996-5.139-3.254-9.7-6.775-13.682-3.516-3.982-7.74-6.763-12.673-8.337-4.94-1.574-9.942-1.854-15.019-.827-5.071 1.027-9.575 3.279-13.507 6.75-3.983 3.523-6.808 7.741-8.475 12.675zm187.993-49.81l-23.076-14.471c-1.879 1.001-3.335 1.729-4.361 2.196l-17.421 7.902 9.301 20.494-6.259 2.843-28.756-63.405 23.673-10.739c7.926-3.59 14.876-4.542 20.861-2.843 5.979 1.699 10.496 5.904 13.539 12.618 2.389 5.257 3.105 10.222 2.152 14.876-.946 4.66-3.465 8.76-7.553 12.287l25.154 14.951-7.254 3.291zm-29.989-17.9c6.047-2.744 10.079-6.228 12.095-10.459 2.022-4.237 1.848-8.953-.51-14.154-2.302-5.077-5.693-8.206-10.166-9.388-4.467-1.176-9.731-.398-15.778 2.345l-17.414 7.895 14.359 31.662 17.414-7.901zm97.338-74.983l52.274-8.026.952 6.196-22.74 3.497 9.631 62.708-6.794 1.045-9.631-62.708-22.74 3.49-.952-6.202zM638.96 50l6.819.846-3.944 31.631 43.191 5.382 3.944-31.625 6.819.852-8.611 69.085-6.819-.852 3.901-31.332-43.19-5.382-3.901 31.332-6.825-.852L638.96 50zm236.901 72.6l6.539 3.179-51.708 52.386-6.452-3.136 9.047-63.492-44.517 46.253-6.358-3.092 9.339-72.98 6.719 3.26-9.475 64.836 45.038-47.546 6.265 3.049-9.475 64.83 45.038-47.547zm70.609 146.159l6.794-19.119-27.979-26.654-18.69 7.777-5.338-5.083 70.74-28.763 5.189 4.946-25.303 72.046-5.413-5.15zm-14.975-48.386l24.084 22.945 13.855-38.804-37.939 15.859zm149.736 118.379l-52.218.199-21.24 12.804-3.547-5.886 21.241-12.804 24.339-46.432 3.702 6.14-19.934 39.47 43.956.367 3.701 6.142zM228.002 918.589c1.058 6.297.523 12.4-1.605 18.317-2.115 5.917-5.674 10.913-10.664 14.975-5.002 4.063-10.639 6.551-16.91 7.46-6.284.914-12.406.224-18.379-2.066-5.973-2.29-11.05-6.01-15.243-11.161-4.193-5.152-6.794-10.882-7.827-17.197-1.02-6.309-.448-12.449 1.717-18.404 2.177-5.96 5.761-10.975 10.751-15.038 5.002-4.063 10.614-6.533 16.836-7.404 6.221-.871 12.319-.149 18.254 2.165 5.948 2.308 11.012 6.041 15.206 11.193 4.194 5.146 6.807 10.87 7.864 17.16zm-24.899-22.174c-4.865-1.866-9.855-2.426-14.982-1.68-5.126.747-9.755 2.793-13.874 6.147-4.119 3.353-7.093 7.485-8.922 12.393-1.829 4.909-2.339 9.942-1.518 15.1.809 5.158 2.899 9.799 6.246 13.918 3.31 4.069 7.404 7.018 12.269 8.841 4.853 1.817 9.88 2.333 15.057 1.549 5.176-.79 9.83-2.862 13.949-6.216 4.119-3.347 7.068-7.46 8.847-12.325 1.767-4.871 2.252-9.861 1.431-14.969-.821-5.114-2.887-9.706-6.197-13.775-3.346-4.117-7.452-7.11-12.306-8.983zm100.38 171.494l.286-27.232c-1.829-1.083-3.223-1.941-4.156-2.576l-15.828-10.726-12.63 18.634-5.687-3.857 39.059-57.631 21.514 14.583c7.205 4.878 11.647 10.316 13.327 16.307 1.667 5.985.435 12.033-3.696 18.13-3.235 4.785-7.093 7.989-11.56 9.613-4.467 1.624-9.283 1.611-14.422-.031l.386 29.26-6.593-4.474zm-.398-34.916c5.487 3.72 10.577 5.344 15.243 4.853 4.654-.491 8.586-3.099 11.796-7.827 3.123-4.616 4.032-9.14 2.7-13.569-1.332-4.43-4.741-8.511-10.241-12.232l-15.828-10.732-19.499 28.775 15.829 10.732zm123.512 18.167l6.446 2.383-24.14 65.302-6.446-2.383 24.14-65.302zm137.461 66.26l6.047.659-2.762 25.347c-3.683 2.47-7.839 4.274-12.468 5.401-4.629 1.132-9.258 1.443-13.874.939-6.545-.709-12.394-2.949-17.558-6.719-5.164-3.77-9.071-8.536-11.709-14.304-2.65-5.768-3.621-11.852-2.924-18.254.697-6.402 2.962-12.101 6.782-17.097 3.808-4.99 8.685-8.754 14.596-11.28 5.923-2.526 12.182-3.429 18.789-2.707a38.596 38.596 0 0 1 13.339 3.957c4.206 2.134 7.839 4.865 10.875 8.2l-4.479 4.423c-2.551-2.949-5.599-5.338-9.146-7.161a32.07 32.07 0 0 0-11.249-3.385c-5.351-.579-10.415.187-15.181 2.302-4.778 2.121-8.723 5.245-11.846 9.382-3.123 4.131-4.977 8.841-5.55 14.123-.585 5.344.199 10.39 2.365 15.131 2.152 4.747 5.338 8.667 9.581 11.771 4.231 3.099 9.034 4.94 14.372 5.525 3.297.36 6.645.174 10.029-.56a34.397 34.397 0 0 0 9.569-3.615l2.402-22.078zm97.542-38.748l6.819-.908 9.233 69.004-6.806.908-9.246-69.004zm140.821-39.514l6.284-2.532 26.007 64.581-6.744 2.719-62.03-38.58 22.025 54.688-6.371 2.569-26.007-64.581 6.744-2.712 62.117 38.543-22.025-54.695zm166.951-25.969l-18.018-9.32-30.212 24.103 5.176 19.573-5.761 4.598-18.901-73.988 5.599-4.473 67.953 34.847-5.836 4.66zm-49.972 8.281l25.994-20.755-36.558-18.988 10.564 39.743zm65.14-125.925l4.082-5.531 51.03 37.715 18.229-24.675 4.965 3.671-22.311 30.2-55.995-41.38z"/><path fill="#757575" d="M281.326 598.954l-21.746 33.511-21.171-33.511v52.857h-8.545v-83.083l29.717 46.847 30.695-46.847v83.083h-8.949v-52.857zm29.299 41.818c1.649 1.031 3.971 2 6.966 2.907 2.995.91 6.399 1.366 10.221 1.366 4.86 0 8.809-1.086 11.847-3.264 3.038-2.175 4.556-5.597 4.556-10.267 0-3.086-.869-5.775-2.604-8.07-1.738-2.295-3.906-4.412-6.51-6.35a121.421 121.421 0 0 0-8.397-5.698 65.663 65.663 0 0 1-8.398-6.172 31.366 31.366 0 0 1-6.508-7.775c-1.738-2.926-2.605-6.449-2.605-10.562 0-6.648 2.192-11.574 6.576-14.777 4.381-3.205 10.089-4.808 17.121-4.808 4.338 0 8.201.356 11.588 1.07 3.385.711 6.118 1.622 8.201 2.729l-3.123 7.833c-1.563-.871-3.798-1.662-6.706-2.372-2.909-.714-6.272-1.07-10.089-1.07-4.688 0-8.16 1.052-10.416 3.147-2.258 2.095-3.385 4.729-3.385 7.892 0 2.772.867 5.221 2.604 7.359 1.735 2.135 3.906 4.153 6.51 6.052a181.759 181.759 0 0 0 8.397 5.756 64.43 64.43 0 0 1 8.398 6.47 33.65 33.65 0 0 1 6.51 8.07c1.735 3.008 2.604 6.568 2.604 10.682 0 6.965-2.258 12.423-6.77 16.38-4.514 3.956-10.894 5.935-19.139 5.935-5.207 0-9.483-.437-12.824-1.307-3.343-.868-6.011-1.859-8.007-2.966l3.382-8.19zm-80.761-90.506H353.98v8.545H229.864zm666.547 48.752l-21.746 33.511-21.171-33.511v52.857h-8.545v-83.083l29.717 46.847 30.695-46.847v83.083h-8.949v-52.857zm64.109-30.226v55.291l-37.869-55.291v83.083h8.546v-55.291l37.868 55.291v-83.083zM844.949 550.33h124.116v8.545H844.949z"/><path fill="#AAA" d="M599.999 1048.562c-4.239 0-8.466-.058-12.681-.178a4.073 4.073 0 0 1-3.96-4.188c.061-2.251 1.961-4.05 4.188-3.96a450.364 450.364 0 0 0 53.3-1.696 4.085 4.085 0 0 1 4.435 3.686 4.081 4.081 0 0 1-3.686 4.435 456.297 456.297 0 0 1-41.596 1.901zm-66.164-4.891c-.202 0-.403-.014-.608-.045l-2.686-.409a4.077 4.077 0 0 1-3.402-4.655c.345-2.224 2.447-3.732 4.655-3.402l2.638.403a4.076 4.076 0 0 1-.597 8.108zm160.575-5.159a4.077 4.077 0 0 1-.849-8.063l2.604-.571c2.234-.473 4.374.908 4.862 3.1a4.077 4.077 0 0 1-3.1 4.862l-2.657.582c-.286.061-.575.09-.86.09zm-215.813-6.733c-.369 0-.743-.048-1.115-.154a447.724 447.724 0 0 1-51.284-17.976 4.078 4.078 0 0 1 3.164-7.516 438.57 438.57 0 0 0 50.344 17.646 4.077 4.077 0 0 1-1.109 8zm270.165-8.722a4.082 4.082 0 0 1-3.843-2.712 4.081 4.081 0 0 1 2.479-5.207 439.461 439.461 0 0 0 49.07-20.868 4.075 4.075 0 0 1 5.467 1.826 4.075 4.075 0 0 1-1.826 5.467 447.051 447.051 0 0 1-49.983 21.261c-.451.159-.91.233-1.364.233zM379.51 990.108a4.06 4.06 0 0 1-2.02-.536l-2.37-1.367a4.08 4.08 0 0 1-1.468-5.576 4.083 4.083 0 0 1 5.576-1.468l2.306 1.33a4.076 4.076 0 1 1-2.024 7.617zm465.364-15.019a4.075 4.075 0 0 1-2.256-7.473l2.219-1.478a4.072 4.072 0 0 1 5.656 1.112 4.075 4.075 0 0 1-1.112 5.656l-2.256 1.505a4.071 4.071 0 0 1-2.251.678zm-512.539-16.123a4.062 4.062 0 0 1-2.455-.823 453.103 453.103 0 0 1-41.286-35.293 4.073 4.073 0 0 1-.104-5.762 4.072 4.072 0 0 1 5.762-.103 444.707 444.707 0 0 0 40.543 34.651 4.08 4.08 0 0 1 .796 5.712 4.069 4.069 0 0 1-3.256 1.618zm557.588-17.96a4.077 4.077 0 0 1-2.662-7.166 444.62 444.62 0 0 0 38.239-37.169 4.075 4.075 0 1 1 6.024 5.493 452.185 452.185 0 0 1-38.945 37.854 4.043 4.043 0 0 1-2.656.988zm-634.91-56.639a4.072 4.072 0 0 1-3.166-1.505l-1.701-2.105a4.078 4.078 0 0 1 6.349-5.117l1.68 2.078a4.077 4.077 0 0 1-3.162 6.649zm707.306-22.758a4.038 4.038 0 0 1-2.349-.748 4.074 4.074 0 0 1-.977-5.68l1.55-2.195a4.076 4.076 0 1 1 6.667 4.692l-1.561 2.206a4.063 4.063 0 0 1-3.33 1.725zm-740.104-23.233a4.074 4.074 0 0 1-3.466-1.924 449.868 449.868 0 0 1-25.808-47.759 4.077 4.077 0 0 1 7.394-3.434 441.385 441.385 0 0 0 25.34 46.888 4.082 4.082 0 0 1-1.311 5.616 4.081 4.081 0 0 1-2.149.613zm769.901-24.802a4.075 4.075 0 0 1-3.591-6.001 438.99 438.99 0 0 0 22.272-48.473 4.072 4.072 0 0 1 5.273-2.327 4.075 4.075 0 0 1 2.328 5.273 446.89 446.89 0 0 1-22.686 49.375 4.074 4.074 0 0 1-3.596 2.153zM176.988 740.95a4.08 4.08 0 0 1-3.88-2.824l-.825-2.585a4.076 4.076 0 0 1 2.654-5.117 4.07 4.07 0 0 1 5.117 2.654l.815 2.543a4.081 4.081 0 0 1-2.627 5.133 4.16 4.16 0 0 1-1.254.196zm853.969-27.602a4.075 4.075 0 0 1-3.954-5.077l.647-2.588a4.057 4.057 0 0 1 4.931-2.983 4.073 4.073 0 0 1 2.983 4.931l-.658 2.641a4.076 4.076 0 0 1-3.949 3.076zm-867.879-27.164a4.076 4.076 0 0 1-4.002-3.328 451.004 451.004 0 0 1-6.717-53.89 4.078 4.078 0 0 1 3.809-4.329c2.362-.133 4.186 1.563 4.329 3.808a442.702 442.702 0 0 0 6.595 52.913 4.077 4.077 0 0 1-4.014 4.826zm878.201-28.39a4.08 4.08 0 0 1-4.053-4.565 446.654 446.654 0 0 0 3.185-53.229l-.003-.963a4.077 4.077 0 0 1 8.153 0l.003.929c0 18.151-1.091 36.389-3.243 54.24a4.077 4.077 0 0 1-4.042 3.588zm-885.064-78.826c-.077 0-.154-.003-.231-.005a4.08 4.08 0 0 1-3.843-4.299l.159-2.702a4.065 4.065 0 0 1 4.31-3.827 4.073 4.073 0 0 1 3.827 4.31l-.154 2.675a4.078 4.078 0 0 1-4.068 3.848zm884.939-29.561a4.076 4.076 0 0 1-4.039-3.57l-.334-2.659a4.073 4.073 0 0 1 3.522-4.562c2.248-.303 4.276 1.29 4.565 3.522l.337 2.686a4.078 4.078 0 0 1-4.051 4.583zm-878.232-26.54a4.074 4.074 0 0 1-4.013-4.817 447.175 447.175 0 0 1 13.095-52.708c.674-2.15 2.954-3.36 5.109-2.667a4.07 4.07 0 0 1 2.667 5.109 439.903 439.903 0 0 0-12.856 51.748 4.075 4.075 0 0 1-4.002 3.335zm867.791-28.992a4.074 4.074 0 0 1-3.946-3.071 438.824 438.824 0 0 0-16.306-50.763 4.077 4.077 0 0 1 2.317-5.279c2.089-.823 4.459.218 5.279 2.317a446.206 446.206 0 0 1 16.609 51.714 4.07 4.07 0 0 1-3.953 5.082zm-835.575-73.524a4.075 4.075 0 0 1-3.71-5.76l1.141-2.49a4.076 4.076 0 1 1 7.394 3.434l-1.11 2.421a4.072 4.072 0 0 1-3.715 2.395zm796.569-26.537a4.073 4.073 0 0 1-3.599-2.158l-1.26-2.333a4.077 4.077 0 0 1 7.16-3.895l1.292 2.391a4.075 4.075 0 0 1-3.593 5.995zM221.771 370.48a4.073 4.073 0 0 1-3.464-6.221 450.614 450.614 0 0 1 31.328-44.38 4.077 4.077 0 0 1 6.364 5.096 443.413 443.413 0 0 0-30.76 43.574 4.069 4.069 0 0 1-3.468 1.931zm740.078-24.606a4.06 4.06 0 0 1-3.317-1.707 445.606 445.606 0 0 0-33.568-41.426 4.074 4.074 0 0 1 .255-5.759 4.072 4.072 0 0 1 5.759.255 452.735 452.735 0 0 1 34.183 42.191 4.072 4.072 0 0 1-.945 5.685 4.037 4.037 0 0 1-2.367.761zM288.92 286.589a4.076 4.076 0 0 1-2.858-6.983l1.951-1.903a4.072 4.072 0 0 1 5.764.095 4.076 4.076 0 0 1-.095 5.765l-1.903 1.855a4.063 4.063 0 0 1-2.859 1.171zm600.387-19.966a4.066 4.066 0 0 1-2.651-.982l-2.033-1.736a4.076 4.076 0 1 1 5.276-6.216l2.065 1.764a4.076 4.076 0 0 1-2.657 7.17zm-557.609-16.95a4.075 4.075 0 0 1-2.465-7.326 451.461 451.461 0 0 1 45.163-30.131 4.076 4.076 0 0 1 5.576 1.469 4.08 4.08 0 0 1-1.468 5.575 442.698 442.698 0 0 0-44.346 29.584 4.055 4.055 0 0 1-2.46.829zm512.475-17.067c-.772 0-1.55-.217-2.24-.672a441.171 441.171 0 0 0-46.241-26.589 4.077 4.077 0 0 1-1.839-5.465 4.08 4.08 0 0 1 5.465-1.836 449.006 449.006 0 0 1 47.101 27.083 4.076 4.076 0 1 1-2.246 7.479zm-419.696-37.012a4.081 4.081 0 0 1-3.748-2.466 4.079 4.079 0 0 1 2.134-5.357l2.484-1.06a4.077 4.077 0 0 1 3.185 7.505l-2.447 1.044a4.063 4.063 0 0 1-1.608.334zm323.438-10.798c-.451 0-.908-.076-1.356-.233l-2.529-.884a4.076 4.076 0 0 1-2.521-5.185 4.074 4.074 0 0 1 5.186-2.52l2.577.9a4.077 4.077 0 0 1-1.357 7.922zm-270.228-8.165a4.08 4.08 0 0 1-3.917-2.958 4.076 4.076 0 0 1 2.8-5.04 447.481 447.481 0 0 1 53.038-11.704 4.09 4.09 0 0 1 4.661 3.393 4.078 4.078 0 0 1-3.392 4.662 439.177 439.177 0 0 0-52.066 11.489 4.137 4.137 0 0 1-1.124.158zm215.805-7.191c-.284 0-.57-.031-.86-.092a441.296 441.296 0 0 0-52.716-7.974 4.079 4.079 0 0 1-3.697-4.426 4.08 4.08 0 0 1 4.424-3.696 449.838 449.838 0 0 1 53.698 8.123 4.077 4.077 0 0 1-.849 8.065zm-109.687-9.561a4.076 4.076 0 0 1-.143-8.15l2.707-.089c2.359-.071 4.132 1.705 4.196 3.955a4.076 4.076 0 0 1-3.952 4.196l-2.659.086-.149.002z"/></svg>