<svg xmlns="http://www.w3.org/2000/svg" viewBox="0 0 1200 1200"><path d="M393.867 353.312c-.296 5.189-2.469 9.628-6.508 13.322-4.049 3.687-8.667 5.449-13.861 5.269-5.193-.173-9.619-2.262-13.277-6.268-3.649-4.004-5.332-8.596-5.032-13.784.296-5.191 2.469-9.632 6.513-13.324 4.04-3.689 8.663-5.449 13.852-5.272 5.198.173 9.623 2.267 13.277 6.268 3.658 4.004 5.337 8.603 5.036 13.789zm-18.883-13.937c-3.604-.224-6.755.889-9.448 3.353-2.698 2.457-4.094 5.494-4.201 9.1-.099 3.613 1.1 6.78 3.595 9.513 2.496 2.738 5.543 4.213 9.143 4.442 3.604.229 6.755-.889 9.453-3.351 2.693-2.46 4.089-5.494 4.192-9.103.103-3.609-1.095-6.78-3.586-9.513-2.501-2.738-5.544-4.212-9.148-4.441zm53.435-34.409c3.286 5.108 3.124 9.754-.48 13.953l15.333 6.03-6.639 4.271-14.085-5.651-6.858 4.417 6.688 10.402-5.22 3.358-19.898-30.94 11.504-7.401c4.722-3.039 8.614-4.412 11.675-4.129 3.061.281 5.723 2.182 7.98 5.69zm-4.133 8.856c.476-1.6.063-3.411-1.239-5.431-1.297-2.022-2.738-3.059-4.314-3.108-1.575-.049-3.761.828-6.566 2.63l-6.639 4.271 7.114 11.069 6.508-4.19c2.95-1.893 4.664-3.648 5.136-5.241zm20.422-30.72l5.602-2.675 15.867 33.19-5.602 2.675-15.867-33.19zm60.295-3.413l5.898-1.95 3.95 11.944c-2.101 4.717-6.217 8.095-12.343 10.119-5.166 1.708-10.05 1.439-14.655-.81-4.601-2.249-7.765-5.97-9.484-11.168-1.715-5.196-1.374-10.113 1.032-14.754 2.401-4.637 6.118-7.785 11.145-9.448 5.032-1.661 9.7-1.573 14 .256l-1.661 5.539c-1.755-.718-3.393-1.068-4.924-1.064-1.531.007-3.214.314-5.045.92-3.532 1.165-6.118 3.286-7.765 6.36-1.643 3.077-1.854 6.468-.624 10.182 1.225 3.719 3.375 6.313 6.454 7.79 3.075 1.477 6.266 1.674 9.588.572 3.313-1.093 5.849-2.727 7.608-4.895l-3.174-9.593zm24.256-25.36l6.095-1.201 7.087 36.101-6.095 1.196-7.087-36.096zm60.24-7.222l6.198-.377 2.244 36.718-6.724.408-22.443-25.515 1.643 26.79-6.203.375-2.24-36.718 6.194-.377 23.004 26.119-1.673-27.423zm36.429 29.307l-4.565 7.92-6.594-.716 20.095-34.822 6.594.723 12.132 38.325-6.594-.716-2.756-8.721-18.312-1.993zm16.423-3.985l-5.009-15.786-8.281 14.341 13.29 1.445zm27.766 19.181l9.291-35.589 6.01 1.569-7.805 29.889 16.248 4.237-1.49 5.705-22.254-5.811zm-70.115-88.206a5.534 5.534 0 0 1-5.534-5.534v-84.768a5.534 5.534 0 1 1 11.068 0v84.768a5.533 5.533 0 0 1-5.534 5.534zm0-121.686a5.534 5.534 0 0 1-5.534-5.534v-20.65a5.534 5.534 0 1 1 11.068 0v20.649a5.533 5.533 0 0 1-5.534 5.535zm0 1068.282a5.534 5.534 0 0 1-5.534-5.535v-20.652a5.534 5.534 0 1 1 11.068 0v20.652a5.533 5.533 0 0 1-5.534 5.535zm0-57.565a5.534 5.534 0 0 1-5.534-5.534v-84.77a5.534 5.534 0 1 1 11.068 0v84.77a5.533 5.533 0 0 1-5.534 5.534zm544.463-486.9h-20.652a5.534 5.534 0 1 1 0-11.068h20.652a5.534 5.534 0 1 1 0 11.068zm-57.566 0h-84.77a5.534 5.534 0 1 1 0-11.068h84.77a5.534 5.534 0 1 1 0 11.068zm-889.028 0h-84.77a5.534 5.534 0 1 1 0-11.068h84.77a5.534 5.534 0 0 1 0 11.068zm-121.684 0H55.535a5.534 5.534 0 1 1 0-11.068h20.652a5.534 5.534 0 1 1 0 11.068zm808.163-284.35a5.533 5.533 0 0 1-3.914-9.448l59.94-59.94a5.533 5.533 0 0 1 7.828 0 5.533 5.533 0 0 1 0 7.828l-59.94 59.94a5.51 5.51 0 0 1-3.914 1.62zm86.045-86.045a5.515 5.515 0 0 1-3.914-1.62 5.531 5.531 0 0 1 0-7.828l14.601-14.601a5.533 5.533 0 0 1 7.828 0 5.533 5.533 0 0 1 0 7.828l-14.601 14.601a5.51 5.51 0 0 1-3.914 1.62zM215.004 990.527a5.533 5.533 0 0 1-3.914-9.448l14.601-14.601a5.531 5.531 0 0 1 7.828 0 5.533 5.533 0 0 1 0 7.828l-14.601 14.601a5.511 5.511 0 0 1-3.914 1.62zm40.706-40.702a5.533 5.533 0 0 1-3.914-9.448l59.94-59.942a5.533 5.533 0 0 1 7.828 0 5.533 5.533 0 0 1 0 7.828l-59.94 59.942a5.51 5.51 0 0 1-3.914 1.62zm729.286 40.702a5.515 5.515 0 0 1-3.914-1.62l-14.601-14.601a5.531 5.531 0 0 1 0-7.828 5.531 5.531 0 0 1 7.828 0l14.601 14.601a5.533 5.533 0 0 1 0 7.828 5.508 5.508 0 0 1-3.914 1.62zm-40.706-40.702a5.514 5.514 0 0 1-3.914-1.62l-59.94-59.942a5.533 5.533 0 0 1 0-7.828 5.533 5.533 0 0 1 7.828 0l59.94 59.942a5.533 5.533 0 0 1-3.914 9.448zm-628.64-628.64a5.515 5.515 0 0 1-3.914-1.62l-59.94-59.94a5.533 5.533 0 0 1 0-7.828 5.533 5.533 0 0 1 7.828 0l59.94 59.94a5.533 5.533 0 0 1-3.914 9.448zm-86.045-86.045a5.515 5.515 0 0 1-3.914-1.62l-14.601-14.601a5.533 5.533 0 0 1 0-7.828 5.533 5.533 0 0 1 7.828 0l14.601 14.601a5.533 5.533 0 0 1-3.914 9.448zm216.508-1.122a5.53 5.53 0 0 1-5.112-3.418l-26.608-64.24a5.535 5.535 0 0 1 2.994-7.233c2.81-1.149 6.069.168 7.231 2.996l26.608 64.24a5.534 5.534 0 0 1-5.113 7.655zm334.386 807.274a5.529 5.529 0 0 1-5.112-3.416l-26.608-64.24a5.532 5.532 0 0 1 2.994-7.231c2.81-1.162 6.069.166 7.231 2.994l26.608 64.24a5.532 5.532 0 0 1-5.113 7.653zm191.023-589.643a5.53 5.53 0 0 1-5.112-3.418 5.535 5.535 0 0 1 2.994-7.233l64.235-26.608c2.805-1.147 6.064.169 7.231 2.996a5.535 5.535 0 0 1-2.994 7.233l-64.235 26.608a5.554 5.554 0 0 1-2.119.422zM164.243 786.032a5.533 5.533 0 0 1-5.113-3.418 5.535 5.535 0 0 1 2.994-7.233l64.24-26.608c2.814-1.156 6.064.168 7.231 2.996a5.535 5.535 0 0 1-2.994 7.233l-64.24 26.608a5.545 5.545 0 0 1-2.118.422zm589.648-552.014a5.536 5.536 0 0 1-5.113-7.655l26.608-64.24c1.167-2.828 4.434-4.147 7.231-2.996a5.536 5.536 0 0 1 2.994 7.233l-26.608 64.24a5.53 5.53 0 0 1-5.112 3.418zm-334.386 807.274a5.533 5.533 0 0 1-5.113-7.653L441 969.399a5.533 5.533 0 1 1 10.225 4.237l-26.608 64.24a5.527 5.527 0 0 1-5.112 3.416zm616.252-255.26a5.554 5.554 0 0 1-2.119-.422l-64.235-26.608a5.536 5.536 0 0 1-2.994-7.233c1.167-2.828 4.43-4.154 7.231-2.996l64.235 26.608a5.536 5.536 0 0 1 2.994 7.233 5.53 5.53 0 0 1-5.112 3.418zM228.483 451.649a5.554 5.554 0 0 1-2.119-.422l-64.24-26.608a5.536 5.536 0 0 1-2.994-7.233c1.167-2.828 4.426-4.145 7.231-2.996l64.24 26.608a5.536 5.536 0 0 1 2.994 7.233 5.53 5.53 0 0 1-5.112 3.418zM420.807 886.97c-1.553 0-2.828.319-3.824.951-.992.633-1.49 1.589-1.49 2.873 0 1.284.498 2.262 1.49 2.94.996.678 3.115 1.409 6.356 2.195 3.245.785 5.687 1.885 7.33 3.304 1.643 1.418 2.464 3.506 2.464 6.261 0 2.761-1.037 5-3.12 6.719-2.082 1.719-4.811 2.581-8.187 2.581-4.946 0-9.336-1.706-13.165-5.112l3.348-4.026c3.196 2.774 6.513 4.161 9.951 4.161 1.719 0 3.084-.368 4.094-1.109 1.01-.736 1.517-1.719 1.517-2.94 0-1.221-.476-2.172-1.427-2.85-.947-.678-2.585-1.297-4.906-1.854-2.325-.556-4.089-1.073-5.292-1.539a11.93 11.93 0 0 1-3.214-1.831c-1.872-1.418-2.805-3.591-2.805-6.513 0-2.927 1.064-5.18 3.191-6.764 2.123-1.585 4.753-2.374 7.891-2.374 2.02 0 4.026.332 6.019.996 1.988.66 3.708 1.598 5.157 2.801l-2.85 4.026c-.938-.844-2.204-1.535-3.802-2.078-1.597-.544-3.173-.818-4.726-.818zm32.501-4.161h5.341v31.622h-5.341v-31.622zm51.394 0h5.337v31.622h-5.79l-17.914-23.071v23.071h-5.341v-31.622h5.341l18.367 23.614v-23.614zm42.111 26.783c1.84 0 3.425-.31 4.753-.929 1.324-.62 2.711-1.607 4.161-2.963l3.438 3.528c-3.348 3.708-7.41 5.566-12.191 5.566s-8.748-1.539-11.899-4.614c-3.151-3.079-4.727-6.966-4.727-11.675 0-4.704 1.607-8.622 4.816-11.76 3.214-3.137 7.267-4.704 12.168-4.704s8.995 1.809 12.285 5.426l-3.393 3.712c-1.508-1.45-2.935-2.46-4.278-3.034-1.342-.57-2.917-.857-4.726-.857-3.196 0-5.88 1.032-8.052 3.097-2.172 2.069-3.259 4.704-3.259 7.918 0 3.214 1.082 5.898 3.236 8.052 2.156 2.156 4.715 3.237 7.668 3.237zm54.648-26.783v5.023h-16.872v8.367h15.153v4.753h-15.153v8.456h17.415v5.023h-22.752v-31.622h22.209zm43.835 0h11.491v31.622h-5.068v-26.873h-6.423v-4.749zm41.528 27.187c2.805 0 4.87-.947 6.198-2.85 1.324-1.899 2.006-4.462 2.033-7.689-.754.844-1.836 1.638-3.254 2.374-1.418.741-2.985 1.109-4.704 1.109-2.837 0-5.211-.943-7.128-2.828-1.917-1.885-2.873-4.385-2.873-7.509 0-3.12 1.032-5.633 3.102-7.532 2.065-1.899 4.664-2.85 7.801-2.85 5.068 0 8.564 2.262 10.494 6.787 1.086 2.594 1.629 5.516 1.629 8.775s-.346 5.97-1.042 8.142c-.691 2.172-1.643 3.891-2.85 5.157-2.352 2.473-5.238 3.712-8.663 3.712-3.42 0-6.522-1.073-9.296-3.214l2.671-3.937c.691.606 1.62 1.149 2.783 1.629 1.16.487 2.197.724 3.099.724zm.974-11.759c1.822 0 3.348-.507 4.569-1.517 1.221-1.01 1.831-2.32 1.831-3.936 0-1.611-.588-2.998-1.764-4.161-1.176-1.158-2.648-1.742-4.412-1.742-1.764 0-3.218.521-4.363 1.562-1.149 1.041-1.719 2.374-1.719 4.004 0 1.629.521 2.998 1.557 4.116 1.042 1.117 2.474 1.674 4.301 1.674zm30.647-6.334v-9.094h22.254v4.749l-13.389 26.873h-5.88l13.075-26.779h-11.221v4.251h-4.839zm53.876 3.259c.907-1.239 1.36-2.491 1.36-3.757s-.485-2.343-1.45-3.236c-.965-.889-2.186-1.333-3.663-1.333-2.594 0-4.749 1.329-6.468 3.981l-4.3-2.487c1.387-2.082 2.918-3.649 4.592-4.704 1.674-1.059 3.829-1.584 6.468-1.584s4.955.835 6.944 2.509c1.993 1.674 2.989 3.959 2.989 6.854 0 1.629-.426 3.182-1.27 4.659-.844 1.477-2.397 3.38-4.659 5.701l-7.419 7.554h14.341v5.112h-21.621v-4.524l9.588-9.637c2.14-2.168 3.666-3.874 4.568-5.108zM355.503 752.666c-.543-1.078-1.121-2.213-1.704-3.361-3.368-6.623-6.835-13.443-9.395-20.49-8.66 5.747-12.213 12.393-13.659 17.158-3.228 10.156.102 20.361 5.032 24.011 1.754 1.362 3.48 1.747 5.472 1.244l1.421-.588c5.673-3.009 11.077-7.219 15.721-12.241-.446-.941-.943-1.904-1.458-2.902a113.49 113.49 0 0 1-1.43-2.831zm5.329-61.308a3.162 3.162 0 0 0-.227-.812 4.352 4.352 0 0 0-.326.122c-3.444 1.425-5.609 3.231-7.021 5.854-2.125 4.129-2.206 10.283-.23 18.305 4.411-5.609 8.954-16.409 7.804-23.469z" fill="#757575"/><path fill="#757575" d="M358.854 652.67c-15.568 1.352-31.017 6.649-47.21 16.055-15.995 9.713-27.992 20.759-36.674 33.768-14.487 21.71-12.87 41.923 4.808 60.078 28.26 29.022 62.682 49.694 102.311 61.441 6.492 1.925 11.573 2.695 15.646 2.315 2.463-.23 4.558-.882 6.371-1.951 4.789-2.863 7.938-8.879 10.211-19.506 8.642-40.417 6.958-80.535-5.007-119.237-7.485-24.208-24.46-35.298-50.456-32.963zm33.625 68.472a2.973 2.973 0 0 1-.111.165c-2.161 2.958-5.543 4.466-8.995 5.752-1.208 7.113-5.98 18.767-14.392 30.001 2.353 7.017 3.203 12.111 2.67 15.953a2.673 2.673 0 0 1-.093.424c-.36 1.181-1.27 2.177-2.434 2.662l-.192.079a2.768 2.768 0 0 1-1.196.206c-1.782-.092-3.209-1.275-3.471-2.873a2.678 2.678 0 0 1-.023-.177c-.207-2.121-1.305-5.108-2.569-8.031-4.912 4.907-10.23 8.817-15.856 11.653-.595.469-1.172.709-1.578.877l-.773.319c-2.277.863-4.564 1.288-6.788 1.288-4.021 0-7.839-1.387-11.031-4.082-7.435-6.18-10.029-17.685-6.438-28.617 3.299-10.044 11.141-18.671 22.742-25.055-2.92-10.343-2.674-18.653.742-25.348 2.986-5.786 8.204-10.038 15.514-12.65 3.455-1.435 5.635-.474 6.768.435 1.229.714 2.636 2.255 3.176 5.568 1.315 8.071-4.339 25.984-12.819 33.076 1.503 4.505 3.423 9.178 5.287 13.715a584.563 584.563 0 0 1 2.136 5.245 196.876 196.876 0 0 1 3.162 7.329c4.602-6.855 7.672-13.581 9.213-18.698-.606.399-1.096.836-1.361 1.305-.69 1.107-1.547 1.463-2.059 1.676-.394.162-1.501.612-2.794.028a3.411 3.411 0 0 1-1.861-2.122c-.303-1.005-.134-2.129.464-3.082 2.56-4.086 7.163-5.833 11.658-7.271 2.69-.966 6.139-2.202 7.367-3.751 1.071-1.576 3.064-2.198 4.703-1.454.21.097.407.218.587.363 1.497 1.208 1.762 3.304.645 5.092z"/><g fill="#1E120D"><path d="M466.298 581.446l.003.032c.853 12.111 3.719 20.043 8.517 23.576 1.829 1.346 3.892 2.032 6.069 2.032.834 0 1.685-.101 2.547-.303l.931-.22c.19-.045.379-.104.561-.176 14.856-5.847 30.895-51.602 38.637-79.532a32.872 32.872 0 0 0 3.695 1.879c8.751 3.93 25.032 7.134 46.702-6.436-1.905 8.536-2.312 16.352-.728 22.332.99 3.738 5.061 14.436 19.006 14.436 2.355 0 4.991-.305 7.943-1 18.956-4.466 52.628-37.312 72.062-57.691-2.856 24.79-3.565 56.188 8.875 66.854.052.044.104.087.158.128 1.545 1.198 2.979 1.553 4.138 1.553.5 0 .947-.066 1.33-.159 2.859-.693 4.062-3.278 4.556-4.344 5.078-11.654 11.414-25.031 18.852-39.81a22.86 22.86 0 0 0 7.592 1.448c3.357.311 6.131.11 9.521-.689 37.935-8.938 98.299-73.158 98.904-73.806.202-.216.38-.453.532-.707 1.382-2.328 2.178-6.913-.508-9.364-.757-.689-3.546-2.705-7.693.309-.28.203-.535.441-.754.707l-.287.347c-.241.226-.605.581-1.235 1.192-41.322 40.155-76.146 63.707-93.205 62.965a13.307 13.307 0 0 1-3.329-.595c25.155-45.802 35.048-52.53 38.171-53.265 2.613-.615 5.476-3.385 5.544-6.791a5.79 5.79 0 0 0-2.151-4.652c-1.453-1.174-3.393-1.624-5.19-1.2-32.331 7.618-54.028 52.527-65.587 84.433.472-12.629 2.589-29.054 6.256-47.966 31.344-27.865 63.366-64.694 88.011-101.246 14.985-22.223 39.568-62.897 35.867-85.491-1.48-10.906-9.581-17.085-21.612-16.531a4.16 4.16 0 0 0-.755.106l-3.752.062a4.128 4.128 0 0 0-.884.109l-3.182.75c-24.452 4.834-49.103 29.635-71.312 71.759-18.989 36.679-35.216 85.518-43.406 130.644-.085.468-.172.954-.259 1.448-10.624 11.926-57.507 61.779-77.055 66.386-2.449.576-2.6.615-3.298-1.954-3.847-15.628 14.7-61.364 29.646-73.151 2.035-1.468 3.693-2.153 4.323-1.794.163.093.344.178.53.251.229.317.504.601.814.841 1.495 1.158 2.378 6.164.177 12.473-2.141 5.755-5.65 8.801-8.267 9.755-1.661.486-3.254 1.764-4.115 3.323-.687 1.244-.911 2.615-.656 3.934.127 1.666.871 3.149 2.094 4.137 1.42 1.148 3.279 1.523 5.229 1.062.095-.022.188-.048.28-.077 7.378-2.3 14.012-9.36 17.298-18.386 4.06-10.811 2.846-21.537-3.02-26.689a4.146 4.146 0 0 0-1.299-.772l-.741-.765a4.126 4.126 0 0 0-1.169-.844c-8.157-3.936-17.644-2.048-26.645 5.261-11.208 8.745-21.617 24.041-28.579 39.822-17.893 16.303-34.785 21.854-47.866 15.627-1.974-.951-3.841-2.476-5.815-4.091-.004-.003-.01-.007-.013-.011 3.831-15.476 6.109-29.302 6.283-38.233.135-6.789-.47-10.98-2.017-13.937-2.241-5.098-6.764-7.257-12.458-5.912-8.031 1.893-14.276 7.967-17.091 16.54-1.405 3.861-1.712 7.659-1.826 11.361-26.901 16.677-35.513 72.861-33.895 98.716zm286.859-258.833c13.611-20.731 26.516-32.291 39.454-35.34l1.89-.445 3.721-.054c.063-.001.126-.003.189-.007 7.208-.435 8.811 3.159 9.395 6.228 4.323 26.723-48.912 107.345-106.337 162.813 12.616-52.903 31.6-101.989 51.688-133.195zM513.982 474.389c1.374-3.784 3.338-6.115 5.979-7.089.576 1.624.817 4.352.74 8.318-.123 6.26-1.202 14.605-3.15 24.466-2.167-4.411-3.636-9.308-4.108-13.982l.012-.688a4.065 4.065 0 0 0-.071-.845c-.737-3.872-.159-7.18.598-10.18zm-9.517 29.216c2.189 5.21 5.14 10.105 8.527 14.099-8.469 32.316-21.012 62.19-27.955 72.669-.977-10.491.256-34.563 6.989-58.33l.016-.059c4.316-16.141 8.886-24.279 12.423-28.379zm428.821-45.648c-2.505-2.222-5.852-3.114-9.665-2.581-.214.03-.426.076-.633.139-15.503 1.614-30.72 15.132-45.239 40.197-25.845 44.884-43.335 114.462-49.308 163.974-30.278 42.008-55.807 68.61-70.107 73.032l-1.175.364a2.689 2.689 0 0 1-1.045-.747c-4.47-7.036-6.137-30.85.078-68.63 49.858-49.967 87.975-113.586 83.408-139.378a4.13 4.13 0 0 0-.038-.187c-1.93-8.57-8.236-13.357-17.156-13.093-16.604.384-32.633 12.312-47.674 35.505-16.42 26.188-29.859 64.377-36.871 104.774a340.609 340.609 0 0 0-2.749 18.875c-11.557 9.722-22.661 13.047-31.986 9.367-1.554-.622-3.089-1.681-4.705-2.825 2.298-13.169 3.397-24.873 3.029-32.405-.286-5.841-1.064-9.433-2.592-11.934-2.343-4.46-6.565-6.119-11.601-4.563-6.888 2.129-11.967 7.784-13.897 15.389-.955 3.313-1.025 6.487-.92 9.566-21.72 16.015-25.755 63.953-22.885 85.731l.005.032c1.45 10.374 4.427 17.057 8.849 19.866 1.551.986 3.238 1.484 4.982 1.484a9.82 9.82 0 0 0 2.92-.456l.773-.24c.188-.058.37-.129.547-.213 12.288-5.838 23.181-44.841 28.205-69.065.821.383 1.675.731 2.557 1.045 7.107 2.62 19.617 4.355 35.338-5.325-1.357 22.831.819 40.742 6.448 50.436 3.709 6.241 9.497 9.639 15.943 9.289 1.565.131 3.081-.34 4.45-.762l.773-.24c18.418-5.697 44.089-34.645 64.904-61.776-1.416 20.972-1.384 47.532 6.12 59.65.035.056.071.111.107.165 3.439 5.003 7.956 7.724 12.67 7.724.571 0 1.144-.04 1.719-.12 1.421.08 2.603-.288 3.437-.546l.773-.239a4.22 4.22 0 0 0 .247-.084c3.32-1.261 12.137-4.608 46.347-67.293 15.933-29.197 30.749-59.093 36.38-70.592.125-.255.223-.521.292-.796.58-2.279.318-4.17-.78-5.622a4.987 4.987 0 0 0-2.915-1.874c-2.448-.91-5.325.155-7.231 2.807a4.038 4.038 0 0 0-.371.627c-31.252 65.409-67.006 127.933-74.975 131.164l-.445.138a4.522 4.522 0 0 1-.227-.253c-4.961-7.233-6.233-36.992 2.024-87.459 42.226-61.274 86.764-144.143 88.535-177.41.003-.048.004-.095.004-.143.128-6.75-1.444-11.625-4.674-14.489zM790.25 554.484c10.83-19.382 21.453-29.791 31.578-30.943 4.167-.125 5.313 1.415 5.825 3.835 2.885 15.662-21.435 65.672-67.652 115.506 7.289-34.151 18.289-66.458 30.249-88.398zM666.901 742.842c-1.149-9.218-1.421-27.616 2.764-47.485l.012-.06c2.505-12.839 5.562-19.82 8.135-23.614 2.052 3.877 4.607 7.469 7.429 10.418-4.942 25.85-13.09 50.389-18.34 60.741zm21.465-78.115c-1.565-3.068-2.71-6.385-3.266-9.613l-.027-.539a4.044 4.044 0 0 0-.129-.847c-.66-2.516-.686-4.94-.08-8.328.991-3.422 2.516-4.91 3.673-5.601.414 1.325.691 3.382.827 6.137.237 4.853-.106 11.242-.998 18.791zm237.489-191.806c-1.454 23.544-31.646 85.712-70.734 146.834 8.887-42.189 23.147-91.9 40.609-123.321 10.224-18.178 19.97-28.11 28.181-28.723.121-.009.241-.023.359-.043a2.94 2.94 0 0 1 .47-.043c.272 0 .264.024.264.024.024.023 1.004.994.851 5.272z"/><path d="M925.416 713.219c-.671.737-68.451 73.818-188.232 79.573-83.998 4.045-137.046-13.565-166.754-29.04-18.637-9.709-30.645-19.806-37.459-26.591 31.804-14.479 84.375-48.528 119.343-103.265 9.605-15.255 19.71-36.209 13.251-49.499-3.865-7.418-12.582-10.489-23.927-8.433a2.655 2.655 0 0 0-.145.029c-22.763 4.984-58.868 31.157-92.692 78.894 3.758-21.211 2.4-34.517-4.06-42.085-5.214-5.87-13.569-7.077-24.824-3.598-19.441 6.013-39.805 27.628-55.238 51.766-19.749-4.891-43.596-13.475-70.925-28.178-34.281-18.444-58.723-46.707-69.981-61.494 37.9-13.326 105.634-49.451 152.891-113.317 12.441-17.047 25.937-40.672 19.587-56.413a4.922 4.922 0 0 0-.046-.107c-3.813-8.736-13.57-12.901-26.747-11.43a2.462 2.462 0 0 0-.147.019c-27.526 4.075-73.014 32.756-117.283 87.845 6.967-26.341 6.759-42.918-.407-52.578-5.472-7.087-14.96-9.098-28.2-5.979-21.096 4.971-46.416 25.841-69.469 57.261-20.849 28.416-34.551 58.465-34.906 76.551-.148 7.54 1.762 12.784 5.835 16.024 2.947 2.646 8.506 5.236 18.387 2.911 2.613-.617 5.474-3.387 5.542-6.788a5.79 5.79 0 0 0-2.152-4.656c-1.454-1.174-3.396-1.623-5.188-1.198-4.383 1.031-6.899.451-7.724-.359a3.904 3.904 0 0 0-.363-.317c-.366-.283-1.552-1.594-1.455-6.553.297-15.155 13.147-42.628 31.974-68.361 20.717-28.315 43.638-47.706 61.316-51.871 3.26-.767 5.454-.515 6.518.75 10.007 11.915-9.882 74.648-23.031 116.118-.394 1.2-.788 2.38-1.178 3.549-1.32 3.957-2.579 7.731-3.677 11.666-5.556 1.107-9.894 1.275-12.221 1.249a6.106 6.106 0 0 1-.991-.19c-.715-1.315-1.777-2.281-3.073-2.774-1.464-.556-3.086-.461-4.618.264-2.564.906-4.405 3.538-4.464 6.5-.039 1.978.683 8.492 11.596 9.27.08.006.159.009.239.01 2.472.051 5.711-.289 9.433-.925-8.945 29.552-15.417 53.224-14.411 67.255.023 1.862.769 3.475 2.114 4.562 1.022.825 2.273 1.251 3.626 1.251.521 0 1.058-.063 1.602-.191 3.25-.768 5.476-3.496 5.539-6.791a4.169 4.169 0 0 0-.013-.418c-1.032-12.484 8.083-38.092 17.347-62.174 12.507 16.134 37.346 43.869 72.349 62.702 26.66 14.343 50.194 23.125 70.125 28.395-12.015 21.412-19.625 43.237-18.957 56.853.321 6.576 2.321 11.052 6.114 13.673 2.768 2.154 7.803 4.104 16.256 1.487 2.448-.754 4.888-3.461 4.733-6.689a5.526 5.526 0 0 0-2.358-4.296 5.809 5.809 0 0 0-4.995-.796c-3.641 1.125-5.482.668-5.947.269a4.39 4.39 0 0 0-.386-.292c-.115-.078-1.131-.872-1.33-4.955-.573-11.699 7.233-32.313 18.939-52.383 16.252 3.43 29.613 4.453 39.715 4.453 5.91 0 10.7-.347 14.319-.761-2.981 14.201-6.541 28.847-9.562 41.272-.266 1.046-.533 2.078-.797 3.099-.851 3.286-1.664 6.427-2.347 9.68-4.376 1.157-7.826 1.524-9.715 1.64a5.243 5.243 0 0 1-.469-.046c-.749-1.072-1.763-1.834-2.95-2.194-1.428-.434-2.954-.242-4.352.532-2.331 1.029-3.876 3.593-3.74 6.343.089 1.814 1.143 7.732 10.961 7.757.087 0 .161-.003.24-.007 1.901-.106 4.303-.489 7.037-1.113-5.732 25.067-9.71 45.12-8.058 56.869.149 1.729.983 3.241 2.312 4.173.914.64 2.007.968 3.154.968.617 0 1.25-.095 1.878-.288 2.931-.911 4.875-3.662 4.726-6.69-.007-.14-.02-.28-.041-.419-1.607-10.547 4.849-33.251 11.381-54.392.077-.028.148-.074.224-.105 7.43 7.451 20.16 18.161 39.754 28.499 28.121 14.835 76.082 31.524 149.498 31.524 7.873 0 16.042-.193 24.508-.599 65.192-3.133 115.124-25.603 145.532-43.899 33.056-19.892 50.514-38.901 51.242-39.701a6.173 6.173 0 0 0-9.132-8.307zM340.661 514.024c50.814-75.422 99.056-100.379 112.917-106.325 4.391-1.429 12.016-3.092 15.473 1.066 3.417 6.105.016 22.298-15.325 45.053-.18.182-.343.38-.489.594-34.685 51.168-88.31 87.716-129.138 103.107l16.562-43.495zm136.455 149.662c13.515-20.27 30.323-38.031 45.424-42.701 1.692-.523 3.917-.932 4.908.093 4.852 5.032 3.167 23.335-.774 44.719-6.028 1-23.209 2.862-49.558-2.111zm63.62 25.352c38.413-66.397 77.533-90.204 88.887-96.034 3.463-1.392 9.461-3.155 12.373-.176 3.092 4.823 1.094 18.388-10.351 38.182-.151.18-.288.373-.407.578-25.932 44.543-68.24 78.145-101.549 93.734l11.047-36.284z"/></g></svg>