<svg xmlns="http://www.w3.org/2000/svg" xmlns:xlink="http://www.w3.org/1999/xlink" width="60" height="45"><defs><path id="a" d="M689 4509a4 4 0 1 1 0 8 4 4 0 0 1 0-8zm-2 4a2 2 0 1 0 4 0 2 2 0 0 0-4 0zm28-4a4 4 0 1 1 0 8 4 4 0 0 1 0-8zm-2 4a2 2 0 1 0 4 0 2 2 0 0 0-4 0zm-46-41h9.78a.95.95 0 0 1 .52.05 1 1 0 0 1 .7 1.04l7.79 29.91h31.45l6.45-24H685a1 1 0 1 1 0-2h39.86a1 1 0 0 1 .99.47 1 1 0 0 1 .07.92l-6.95 25.88a1 1 0 0 1-1.1.73h-32.65a.94.94 0 0 1-.53-.05 1 1 0 0 1-.69-1.04l-7.79-29.91H667a1 1 0 1 1 0-2zm31 40h8a1 1 0 0 1 0 2h-8a1 1 0 1 1 0-2z"/><path id="b" d="M699 4483a1 1 0 0 1 1 1v3h4v-3a1 1 0 1 1 2 0v3h3a1 1 0 0 1 0 2h-3v4h3a1 1 0 1 1 0 2h-3v3a1 1 0 1 1-2 0v-3h-4v3a1 1 0 1 1-2 0v-3h-3a1 1 0 0 1 0-2h3v-4h-3a1 1 0 0 1 0-2h3v-3a1 1 0 0 1 1-1zm5 6h-4v4h4z"/></defs><use fill="#2f3238" xlink:href="#a" transform="translate(-666 -4472)"/><use fill="#26e6e6" xlink:href="#b" transform="translate(-666 -4472)"/></svg>