<svg xmlns="http://www.w3.org/2000/svg" xmlns:xlink="http://www.w3.org/1999/xlink" width="60" height="60"><defs><path id="a" d="M1058 1498h-46a4 4 0 0 1-4-4v-46a4 4 0 0 1 4-4h43a1 1 0 1 1 0 2h-43a2 2 0 0 0-2 2v46c0 1.1.9 2 2 2h46a2 2 0 0 0 2-2v-34h-45a1 1 0 0 1 0-2h45v-13a1 1 0 1 1 2 0v49a4 4 0 0 1-4 4z"/><path id="b" d="M1016 1450a2 2 0 1 1 0 4 2 2 0 0 1 0-4zm8 0a2 2 0 1 1 0 4 2 2 0 0 1 0-4zm8 0a2 2 0 1 1 0 4 2 2 0 0 1 0-4zm35 42a1 1 0 0 1-1-1v-49a2 2 0 0 0-2-2h-49a1 1 0 1 1 0-2h49a4 4 0 0 1 4 4v49a1 1 0 0 1-1 1z"/></defs><use fill="#2f3238" xlink:href="#a" transform="translate(-1008 -1438)"/><use fill="#26e6e6" xlink:href="#b" transform="translate(-1008 -1438)"/></svg>