<svg xmlns="http://www.w3.org/2000/svg" xmlns:xlink="http://www.w3.org/1999/xlink" width="60" height="43"><defs><path id="a" d="M1143 932h-25a4 4 0 0 1-3.45-6h-.55a4 4 0 0 1-4-4h-8a4 4 0 0 1-4-4v-28a1 1 0 0 1 2 0v28c0 1.1.9 2 2 2h32a2 2 0 0 0 2-2 1 1 0 1 1 2 0 4 4 0 0 1-4 4h-22c0 1.1.9 2 2 2h16v2h-12a2 2 0 0 0 0 4h25a13 13 0 0 0 0-26h-15a2 2 0 0 0 0 4h10a7 7 0 0 0 7 7 1 1 0 1 1 0 2 9 9 0 0 1-8.78-7H1128a4 4 0 1 1 0-8h8v-9a2 2 0 0 0-2-2h-29a1 1 0 0 1 0-2h29a4 4 0 0 1 4 4v9h5a15 15 0 0 1 0 30zm-38-37h26a1 1 0 0 1 0 2h-26a1 1 0 0 1 0-2z"/><path id="b" d="M1105 901h14a1 1 0 0 1 0 2h-14a1 1 0 1 1 0-2zm0 13h26a1 1 0 1 1 0 2h-26a1 1 0 1 1 0-2z"/></defs><use fill="#2f3238" xlink:href="#a" transform="translate(-1098 -889)"/><use fill="#26e6e6" xlink:href="#b" transform="translate(-1098 -889)"/></svg>