<svg xmlns="http://www.w3.org/2000/svg" xmlns:xlink="http://www.w3.org/1999/xlink" width="60" height="60"><defs><path id="a" d="M366 4501a1 1 0 0 1 1 1v14a1 1 0 0 1-2 0v-14a1 1 0 0 1 1-1zm-32 16a1 1 0 0 1-1-1v-6a1 1 0 0 1 2 0v6a1 1 0 0 1-1 1zm16-28a1 1 0 0 1 1 1v26a1 1 0 0 1-2 0v-26a1 1 0 0 1 1-1z"/><path id="b" d="M379 4527a1 1 0 0 1-1-1v-55a2 2 0 0 0-2-2h-52a2 2 0 0 0-2 2v52c0 1.1.9 2 2 2h49a1 1 0 1 1 0 2h-49a4 4 0 0 1-4-4v-52a4 4 0 0 1 4-4h52a4 4 0 0 1 4 4v55a1 1 0 0 1-1 1zm-13-38a4 4 0 1 1 0 8 4 4 0 0 1 0-8zm-2 4a2 2 0 1 0 4 0 2 2 0 0 0-4 0zm2-16a1 1 0 0 1 1 1v6a1 1 0 0 1-2 0v-6a1 1 0 0 1 1-1zm-32 28a4 4 0 1 1 0-8 4 4 0 0 1 0 8zm2-4a2 2 0 1 0-4 0 2 2 0 0 0 4 0zm-2-8a1 1 0 0 1-1-1v-14a1 1 0 0 1 2 0v14a1 1 0 0 1-1 1zm16-8a4 4 0 1 1 0-8 4 4 0 0 1 0 8zm2-4a2 2 0 1 0-4 0 2 2 0 0 0 4 0z"/></defs><use fill="#26e6e6" xlink:href="#a" transform="translate(-320 -4467)"/><use fill="#2f3238" xlink:href="#b" transform="translate(-320 -4467)"/></svg>