<svg xmlns="http://www.w3.org/2000/svg" xmlns:xlink="http://www.w3.org/1999/xlink" width="60" height="60"><defs><path id="a" d="M369 4287a1 1 0 0 1 0 2h-43.23a27.98 27.98 0 0 0 43.8 6H336a1 1 0 0 1 0-2h35.42a28 28 0 0 0 6.58-18.08 28.05 28.05 0 0 0-25-27.9v-.01a1 1 0 0 1 0-2.01 30.05 30.05 0 0 1 27 29.92 30.04 30.04 0 0 1-30 30.08c-16.57 0-30-13.47-30-30.08a30.05 30.05 0 0 1 27-29.93v.01a1 1 0 0 1 0 2v.01a28.05 28.05 0 0 0-25 27.91c0 4.33.97 8.42 2.72 12.08zm4-11a1 1 0 0 1-1-1 22 22 0 1 0-44 0 1 1 0 1 1-2 0 24 24 0 1 1 48 0 1 1 0 0 1-1 1z"/><path id="b" d="M350 4259a1 1 0 0 1 1 1v22a1 1 0 0 1-2 0v-22a1 1 0 0 1 1-1z"/></defs><use fill="#2f3238" xlink:href="#a" transform="translate(-320 -4245)"/><use fill="#26e6e6" xlink:href="#b" transform="translate(-320 -4245)"/></svg>