<svg xmlns="http://www.w3.org/2000/svg" xmlns:xlink="http://www.w3.org/1999/xlink" width="118" height="38"><defs><path id="a" d="M1163.5 7935.02c.1.25-.35 1.16-.35 1.16s-.95 2.54-4.72 2.51c-.55 0-4.31-.42-2.63-5.34.24-.72 1.34-4.58 2.6-8.76l-.78.02h-3.55c.3 2.66.45 3.15.4 6.06-.03 1.54-.38 9.46-2.21 12.8-1.55 2.8-3.04 3.26-4.03 3.47-.94.2-2.93-.02-3.68-1.42-.94-1.75.06-4.94.06-4.94l2.15-6.44c-1.15 2.2-2.86 4.49-4.95 4.35-2.16-.15-2.21-1.8-2.21-1.8s-1.25 1.9-3.74 1.8c-3.15-.14-3.38-2.28-3.38-2.28s-2.3 2.33-4.18 2.28c-.8-.03-1.72-.02-2.4-.88-.71-.9-.48-2.12-.09-3.3.65-1.89.98-2.91 1.24-3.87-.1.1-.85 1.35-2.44 1.5-.35.02-.79.03-1.09-.01-.76 3.26-2.27 4.98-3.4 5.72-2.5 1.64-6.56 1.4-8.54-.93-1.55-1.82-2.1-4.67-1-8.62.96-3.42 2.94-5.6 3.88-6.53 2.48-2.43 4.85-3.02 7.27-2.73 1.55.19 4.33 1.27 4.6 3.9.5-.37 1.11-.77 1.87-1.13 3.35-1.62 6.87-.8 11.25-.23 4.22.54 7.72.61 11.43.34l.42-1.16s1.61-5.17 2.48-7.9c.45-1.42.9-2.22 1.58-2.64 1.09-.67 2.84-.5 3.49.38.51.71.98 2.65-.62 5.43-.83 1.44-2.33 4.13-2.86 4.73l-.39.75a150.88 150.88 0 0 0 4.64-.67c1.2-3.76 2.35-7.07 2.93-7.77.48-.58 1.85-1.3 2.76-1.75.5-.25.72.13.72.13l-2.68 8.75c4.7-.88 6.99-1.62 6.99-1.62s-.96 2.54-2.64 4.15c-.66.65-3.14 1.29-5.68 1.68a325.5 325.5 0 0 0-2.53 7.78c-.42 1.39-1.84 4.87-.17 4.88.95 0 1.1-1.63 1.44-1.85.72-.46 2.5-.69 2.75 0zm-8.88-14.5c.22-.32 1.26-2.1 1.83-2.97 1.6-2.42 2.2-5.02 1.92-5.77-.28-.75-.9-.04-1.17.78-.6 1.88-2.04 6.4-2.58 7.97zm-32.18 7.63c-.37-.37-1.45-.35-1.26.8.24 1.38 1.38 1.7 1.62 1.7 0 0 .53-1.6-.36-2.5zm18 1.33s.25-1.47-1.1-1.64c-.98-.13-1.9.89-2.79 2.86-.92 2.03-1.18 3.4-1.12 4.16.12 1.66 1.63 1.75 2.53 1.18a5.03 5.03 0 0 0 1.73-2.67c.5-1.67.85-3.18.75-3.9zm7.35 1.6l2.17-6.48a67.7 67.7 0 0 1-9.55-.68c-6.6-.87-11.51-1.4-13.41.69-1.25 1.38-2.07 1.12-2.35.84-.1-.1-.04-.31-.04-.31l.08-.34c.48-2.34-1.4-3.75-3.46-3.3-1.73.4-3.28 1.46-4.87 4.75-1.6 3.28-1.87 7.16-.82 8.64 1.34 1.9 3.62 2.05 5.23.1a7.62 7.62 0 0 0 1.67-3.2 3.52 3.52 0 0 1-2.2-2.1c-.3-.97-.14-1.94.58-2.4.57-.36 2.12-.57 2.76.88.56 1.27.1 2.6.1 2.6.16.12 1.23.25 2-.38 1.02-.86 1.75-3 2.86-3.6.67-.38 3.1-.24 3.1-.24s-1.05 3.48-1.67 5.37c-.4 1.21-1.3 3.57-.84 4.05 1.1 1.1 3.01-.95 3.01-.95s-.07-3.69 3.09-6.65c1.3-1.23 2.67-1.9 4.35-1.82 1.67.1 1.66 1.43 1.66 1.43s.65-.98.96-1.2c.68-.47 2.87-.23 2.87-.23s-1.92 6-2.26 7c-.2.6-.85 2.68.23 2.67 1.98-.02 3.67-2.78 4.75-5.13zm5.3-5.68l-5.32 16.35s-.4 1.36-.19 1.96c.17.46.49.66 1.16.4.74-.29 1.71-.96 2.9-3.83 1.15-2.81 2.27-9.41 1.46-14.88zm64.62-.95l-1.11 3.5c1.67-2.54 6-2.32 5.84 0-.24 3.7-2.73 4.61-4.17 5.3-1.61.79-2.45.63-3.01.7.1.02 1.8.05 2.4.46 1.67 1.15.71 2.54 1.67 2.54.48 0 .72-.7.88-1.16.32-.92 1.03-.92 1.03-.92s1.13-.15 1.47-.08c.94.17.5.82.33 1.29a8.6 8.6 0 0 1-.74 1.35c-.82 1.02-2.51 1.16-3.55 1.13-1.58-.04-2.3-.92-2.3-2.3 0-1.64-1.9-1.62-1.9-1.62l-1.2 3.23s-.14.72-.62.72c-.66 0-.99-.04-2.18-.04-.72 0-.54-.68-.54-.68l1.3-3.64s-2.37 4.36-4.93 4.33c-.8-.01-1.71-.02-2.4-.87-.7-.9-.48-2.13-.08-3.3.65-1.9 1.5-4 1.3-3.9-1.51.73-2.54.08-2.74-.03a4.86 4.86 0 0 1-2.29 1.73c-1.54 7.29-7.47 7.17-9.28 5.22-1.08-1.18-1.25-2.97-.72-4.98-.26.2-.77.39-1.25.4-.48 0-.93-.17-.98-.18a11.74 11.74 0 0 1-1.17 3.14c-2.16 3.33-5.03 3-6.2 2.08a5.97 5.97 0 0 1-1.65-2.05 5.32 5.32 0 0 1-1.92 2.08c-1.39.88-4.63 1.28-6.62-1.06-1.54-1.82-2.1-4.67-1-8.62a14.45 14.45 0 0 1 3.89-6.53c2.26-2.12 5.13-3.1 7.24-3 4.12.19 5.08 2.27 5.16 3.78.45-.32.99-.65 1.63-.96 3.35-1.61 6.63-1.02 11.01-.46a61.8 61.8 0 0 0 16.7.02l.4-1.13 2.49-7.9c.44-1.42.9-2.21 1.58-2.63 1.08-.67 2.84-.5 3.48.38.52.71 1.14 2.25-.61 5.43a47.5 47.5 0 0 1-2.86 4.72l-.38.54c6.87-1.11 8.89-2.2 8.89-2.2s-.96 2.67-2.63 4.28c-.92.89-5.1 1.67-7.66 1.9zm1.03-4.53c.22-.33 1.26-2.11 1.83-2.98 1.6-2.43 2.2-5.02 1.91-5.77-.28-.75-.9-.05-1.16.77-.6 1.88-2.04 6.41-2.58 7.98zm-37.43 8.06c-.02-.82-.84-1.35-1.44-.24-.67 1.25 0 3.7 0 3.7s1.5-1.25 1.44-3.46zm16.7.2c-.7-.7-2.68-.46-4.06 2.77-.77 1.8-.99 3.36-.72 4.38.48 1.85 3.83 1.85 5.09-2.54 0-.07.04-.22.06-.3-.04 0-3.23-.16-3-1.77.11-.72 1.44-.46 2.64-.46l.79-.01a2.47 2.47 0 0 0-.8-2.07zm5.14-.56c-.2-.58-.96-.58-1.2-.11-.55 1.08.56 1.66.53 1.69.5-.3.84-1.12.67-1.58zm10.94-3.1c-4.65.03-10.73.04-15.78-.93-6.95-1.34-9.8-1.17-11.97.92-2.16 2.08-2.77.93-2.7.63.15-.68.27-1.62.2-2.18-.15-1.24-.9-2.1-2.61-2.14-2.16-.05-4.6 1.08-6.2 4.36-1.6 3.28-2.32 7.78-1.14 9.26 1.48 1.87 4.22.1 4.27-1.02-.18-.5-1.96-5.91.97-7.48 1.45-.77 5.77.42.98 7.11-.24 1.62 3.35 5.3 5.7 1.13.48-.86.61-1.92.67-2.9-.84-1.12-1.37-2.46-.93-3.53.36-.88 1.35-.97 1.74-.83 1 .35 1.2 1.62 1 3.84.21.32.5.39.87.42 1.15.1 1.54-.48 1.66-.6 1.25-2.72 3.77-4.25 5.69-4.24 3.02.02 3.77 1.9 3.86 3.79.77-.05 1.13-.19 1.27-.34a2.97 2.97 0 0 1-.78-1.47c-.16-.9.2-1.51.76-1.8.52-.25 1.55-.37 2.1.52.75 1.18-.51 2.6-.51 2.6.2.2.79.35 1.51-.3.72-.65 1.52-1.88 1.68-2.08.72-.93 3.33-.64 3.33-.64l-1.56 4.8c-.4 1.2-1.5 4.03-1.2 4.6.57 1.05 2.26-.78 2.26-.78 1.7-1.63 3.41-5.96 3.41-5.96l1.45-4.76zm1.79 5.5l-.94 2.77s2.76.42 4.3-2.53c1.9-3.7-2.16-2.77-3.36-.23z"/></defs><use fill="#fff" xlink:href="#a" transform="translate(-1110 -7909)"/></svg>