<svg xmlns="http://www.w3.org/2000/svg" xmlns:xlink="http://www.w3.org/1999/xlink" width="56" height="56"><defs><path id="a" d="M1063.37 4490a1 1 0 0 1-1 1H1040a1 1 0 0 1-1-1v-22.38a1 1 0 1 1 2 0V4489h20.09a28.03 28.03 0 0 0-15.09-18.28s-.38-.16-.55-.31a.98.98 0 0 1-.45-.82 1 1 0 0 1 1-1c.18 0 .34.06.48.15h.01a30.04 30.04 0 0 1 16.9 21.26z"/><path id="b" d="M1059.2 4502.31a25.98 25.98 0 1 1-26.2-32.26v.01a1 1 0 0 1 .45.1 1 1 0 0 1 1.55.83V4495h24a1 1 0 0 1 0 2h-24.6l-11.72 11.72a.99.99 0 1 1-1.4-1.4l11.72-11.71v-23.55h-.04a23.98 23.98 0 1 0 24.24 29.94s.02-.13.07-.24c.1-.43.48-.76.95-.76a1 1 0 0 1 1 1c0 .1 0 .2-.03.31z"/></defs><use fill="#26e6e6" xlink:href="#a" transform="translate(-1008 -4466)"/><use fill="#2f3238" xlink:href="#b" transform="translate(-1008 -4466)"/></svg>