<svg xmlns="http://www.w3.org/2000/svg" xmlns:xlink="http://www.w3.org/1999/xlink" width="60" height="46"><defs><path id="a" d="M497 935h-52a4 4 0 0 1-4-4v-35a1 1 0 0 1 2 0v35c0 1.1.9 2 2 2h52a2 2 0 0 0 2-2v-38a2 2 0 0 0-2-2h-55a1 1 0 0 1 0-2h55a4 4 0 0 1 4 4v38a4 4 0 0 1-4 4z"/><path id="b" d="M494.7 895.28a1 1 0 0 1 0 1.41l-22.85 22.84a1 1 0 0 1-.85.45 1 1 0 0 1-.85-.45l-22.84-22.84a1 1 0 0 1 1.41-1.41L471 917.55l22.28-22.27a1 1 0 0 1 1.41 0z"/></defs><use fill="#2f3238" xlink:href="#a" transform="translate(-441 -889)"/><use fill="#26e6e6" xlink:href="#b" transform="translate(-441 -889)"/></svg>