<svg xmlns="http://www.w3.org/2000/svg" xmlns:xlink="http://www.w3.org/1999/xlink" width="60" height="60"><defs><path id="a" d="M723 4289a4 4 0 0 1-4 4h-28.6l-13.65 13.64a.99.99 0 0 1-1.67-.27 1 1 0 0 1-.08-.46V4291h2v12.54l12.26-12.26a1 1 0 0 1 .78-.28H719a2 2 0 0 0 2-2v-32a2 2 0 0 0-2-2h-46a2 2 0 0 0-2 2v35a1 1 0 0 1-2 0v-35a4 4 0 0 1 4-4h46a4 4 0 0 1 4 4z"/><path id="b" d="M686 4270a3 3 0 1 1 0 6 3 3 0 0 1 0-6zm-1 3a1 1 0 1 0 2 0 1 1 0 0 0-2 0zm11-3a3 3 0 1 1 0 6 3 3 0 0 1 0-6zm-1 3a1 1 0 1 0 2 0 1 1 0 0 0-2 0zm11-3a3 3 0 1 1 0 6 3 3 0 0 1 0-6zm-1 3a1 1 0 1 0 2 0 1 1 0 0 0-2 0zm23 16a1 1 0 0 1-1-1v-37a2 2 0 0 0-2-2h-49a1 1 0 0 1 0-2h49a4 4 0 0 1 4 4v37a1 1 0 0 1-1 1z"/></defs><use fill="#2f3238" xlink:href="#a" transform="translate(-669 -4247)"/><use fill="#26e6e6" xlink:href="#b" transform="translate(-669 -4247)"/></svg>