<svg xmlns="http://www.w3.org/2000/svg" xmlns:xlink="http://www.w3.org/1999/xlink" width="38" height="60"><defs><path id="a" d="M1019 4245h30a4 4 0 0 1 4 4v52a4 4 0 0 1-4 4h-30a4 4 0 0 1-4-4v-52a4 4 0 0 1 4-4zm-2 4v44h29a1 1 0 0 1 0 2h-29v6c0 1.1.9 2 2 2h30a2 2 0 0 0 2-2v-44h-29a1 1 0 0 1 0-2h29v-6a2 2 0 0 0-2-2h-30a2 2 0 0 0-2 2z"/><path id="b" d="M1034 4297a2 2 0 1 1 0 4 2 2 0 0 1 0-4zm-3-47h6a1 1 0 0 1 0 2h-6a1 1 0 1 1 0-2zm-9.72 15.36l4.08-4.08a.96.96 0 1 1 1.36 1.36l-4.08 4.07a.96.96 0 1 1-1.36-1.35zm0 6l10.08-10.08a.96.96 0 1 1 1.36 1.36l-10.08 10.07a.96.96 0 1 1-1.36-1.35z"/></defs><use fill="#2f3238" xlink:href="#a" transform="translate(-1015 -4245)"/><use fill="#26e6e6" xlink:href="#b" transform="translate(-1015 -4245)"/></svg>