<svg xmlns="http://www.w3.org/2000/svg" xmlns:xlink="http://www.w3.org/1999/xlink" width="60" height="60"><defs><path id="a" d="M809.71 901.29c.4.4.4 1.07 0 1.48l-17.91 17.9a1.05 1.05 0 0 1-1.48-1.47l17.91-17.91c.41-.4 1.07-.4 1.48 0z"/><path id="b" d="M827.8 894.53l-36.27 36.27a4 4 0 0 1-2.11 1.1.98.98 0 0 1-.42.1h-9a1 1 0 0 1-1-1v-9c0-.08.03-.15.04-.22.1-.85.47-1.68 1.13-2.34l36.27-36.27a4.02 4.02 0 0 1 5.68 0l5.68 5.68a4.02 4.02 0 0 1 0 5.68zm-1.39-4.29l-5.69-5.69a2.01 2.01 0 0 0-2.84 0l-6.5 6.5c.14.05.28.13.39.24l3.9 3.91a1.04 1.04 0 1 1-1.47 1.48l-3.91-3.91c-.11-.12-.2-.25-.24-.39l-28.1 28.1 8.54 8.53 35.92-35.92c.79-.79.79-2.06 0-2.85zM781 930h7.52l-7.52-7.52zm-10 11a1 1 0 1 1-2 0v-58a1 1 0 0 1 1-1h30a1 1 0 0 1 0 2h-29zm5 1a1 1 0 0 1 0-2h51v-29a1 1 0 0 1 2 0v30a1 1 0 0 1-1 1z"/></defs><use fill="#26e6e6" xlink:href="#a" transform="translate(-769 -882)"/><use fill="#2f3238" xlink:href="#b" transform="translate(-769 -882)"/></svg>