<svg xmlns="http://www.w3.org/2000/svg" xmlns:xlink="http://www.w3.org/1999/xlink" width="60" height="60"><defs><path id="a" d="M1067 1737a1 1 0 0 1-1-1v-43a2 2 0 0 0-2-2h-52a2 2 0 0 0-2 2v40c0 1.1.9 2 2 2h49a1 1 0 1 1 0 2h-49a4 4 0 0 1-4-4v-40a4 4 0 0 1 4-4h34v-8a2 2 0 0 0-2-2h-12a2 2 0 0 0-2 2v3a1 1 0 1 1-2 0v-3a4 4 0 0 1 4-4h12a4 4 0 0 1 4 4v8h16a4 4 0 0 1 4 4v43a1 1 0 0 1-1 1zm-21-48c-1.1 0 .45 0 0 0z"/><path id="b" d="M1025 1695a1 1 0 0 1 1 1v34a1 1 0 1 1-2 0v-34a1 1 0 0 1 1-1zm-6 0a1 1 0 0 1 1 1v34a1 1 0 1 1-2 0v-34a1 1 0 0 1 1-1zm38 0a1 1 0 0 1 1 1v34a1 1 0 1 1-2 0v-34a1 1 0 0 1 1-1zm-6 0a1 1 0 0 1 1 1v34a1 1 0 1 1-2 0v-34a1 1 0 0 1 1-1z"/></defs><use fill="#2f3238" xlink:href="#a" transform="translate(-1008 -1677)"/><use fill="#26e6e6" xlink:href="#b" transform="translate(-1008 -1677)"/></svg>