<svg xmlns="http://www.w3.org/2000/svg" viewBox="0 0 93.017 93.017"><g fill="#fce38a" fill-rule="evenodd" clip-rule="evenodd"><path d="M46.335 4.731c4.007 0 7.266 3.26 7.266 7.267 0 4.006-3.259 7.266-7.266 7.267v4.731c6.626-.001 11.997-5.371 11.997-11.998C58.332 5.371 52.961 0 46.335 0v4.731zm-.001 14.534c-4.005 0-7.265-3.259-7.265-7.267 0-4.007 3.26-7.267 7.265-7.267h.001V0h-.001c-6.625 0-11.997 5.371-11.997 11.998 0 6.627 5.372 11.998 11.997 11.998h.001v-4.731h-.001zm-18.756 12.59h41.907v5.575H27.578z"/><circle cx="25.55" cy="34.642" r="6.083"/><circle cx="69.485" cy="34.642" r="6.083"/><path d="M81.878 66.244L65.656 70.3l7.315.229c-2.65 2.288-5.384 4.492-8.315 6.411-3.02 1.977-8.127 3.515-11.08.504-3.552-3.623-4.357-46.16-4.482-55.629l-.03-2.283-2.555.034-2.555-.034-.031 2.283c-.126 9.469-.93 52.006-4.483 55.629-2.954 3.011-8.059 1.473-11.081-.504-2.93-1.919-5.665-4.123-8.313-6.411l7.317-.229-16.224-4.056 7.436 14.702-1.514-7.697c.457 2.323 3.896 5.49 5.464 7.18a43.21 43.21 0 0 0 7.442 6.404c5.57 3.768 12.305 7.235 19.127 5.888 11.343-2.239 20.842-9.752 26.864-19.472l-1.515 7.697 7.435-14.702z"/></g></svg>